<?xml version="1.0" encoding="UTF-8"?><svg xmlns="http://www.w3.org/2000/svg" viewBox="0 0 480 685.71"><g id="Layer_1" focusable="false"><path d="M205.71,102.86l-17.14,137.14-17.14,51.43v25.71L12.86,442.33v-42.33c0-12.5-2.81-22.86-6.43-22.86s-6.43,10.36-6.43,22.86v122.86h12.86v-17.14h175.71v51.43l-85.71,71.43v37.14l11.43,11.43h74.29v-8.57h17.14v-51.43h2.86l8.57,68.57h45.71l8.57-68.57h2.86v51.43h17.14v8.57h74.29l11.43-11.43v-37.14l-85.71-71.43v-51.43h175.71v17.14h12.86v-122.86c0-12.5-2.81-22.86-6.43-22.86s-6.43,10.36-6.43,22.86v42.33l-158.57-125.19v-25.71l-17.14-51.43-17.14-137.14C251.43,0,245.8,0,240,0s-11.43,0-34.29,102.86Z"/></g></svg>