<?xml version="1.0" encoding="utf-8"?>
<!-- Generator: Adobe Illustrator 27.5.0, SVG Export Plug-In . SVG Version: 6.00 Build 0)  -->
<svg version="1.1" id="Layer_1" xmlns="http://www.w3.org/2000/svg" xmlns:xlink="http://www.w3.org/1999/xlink" x="0px" y="0px"
	 viewBox="0 0 2122 2122" style="enable-background:new 0 0 2122 2122;" xml:space="preserve">
<g>
	<rect x="0" style="fill:#FFFFFF;" width="2121.321" height="2121.32"/>
	<g>
		<path d="M749.611,215.95c0.222,0,0.402-0.18,0.402-0.402c0-0.222-0.18-0.402-0.402-0.402c-0.222,0-0.402,0.18-0.402,0.402
			C749.209,215.77,749.39,215.95,749.611,215.95z"/>
		<path d="M822.129,216.352c0.444,0,0.804-0.359,0.804-0.804c0-0.444-0.36-0.804-0.804-0.804c-0.445,0-0.804,0.36-0.804,0.804
			C821.325,215.992,821.685,216.352,822.129,216.352z"/>
		<path d="M894.647,216.754c0.667,0,1.206-0.54,1.206-1.206c0-0.666-0.54-1.206-1.206-1.206c-0.667,0-1.206,0.541-1.206,1.206
			C893.44,216.214,893.98,216.754,894.647,216.754z"/>
		<path d="M967.165,216.955c0.778,0,1.407-0.63,1.407-1.408c0-0.777-0.63-1.408-1.407-1.408c-0.777,0-1.408,0.631-1.408,1.408
			C965.757,216.325,966.387,216.955,967.165,216.955z"/>
		<path d="M1039.683,217.156c0.888,0,1.609-0.72,1.609-1.609c0-0.888-0.72-1.609-1.609-1.609c-0.889,0-1.609,0.72-1.609,1.609
			C1038.074,216.437,1038.794,217.156,1039.683,217.156z"/>
		<path d="M1112.2,216.955c0.777,0,1.407-0.63,1.407-1.408c0-0.777-0.63-1.408-1.407-1.408c-0.777,0-1.408,0.631-1.408,1.408
			C1110.793,216.325,1111.423,216.955,1112.2,216.955z"/>
		<path d="M1184.718,216.754c0.666,0,1.206-0.54,1.206-1.206c0-0.666-0.54-1.206-1.206-1.206c-0.666,0-1.207,0.541-1.207,1.206
			C1183.511,216.214,1184.052,216.754,1184.718,216.754z"/>
		<path d="M1257.236,216.352c0.444,0,0.804-0.359,0.804-0.804c0-0.444-0.36-0.804-0.804-0.804c-0.444,0-0.804,0.36-0.804,0.804
			C1256.432,215.992,1256.792,216.352,1257.236,216.352z"/>
		<path d="M1329.753,215.95c0.223,0,0.402-0.18,0.402-0.402c0-0.222-0.18-0.402-0.402-0.402c-0.222,0-0.402,0.18-0.402,0.402
			C1329.351,215.77,1329.532,215.95,1329.753,215.95z"/>
		<path d="M568.317,288.267c0.111,0,0.201-0.09,0.201-0.201c0-0.111-0.09-0.201-0.201-0.201s-0.201,0.09-0.201,0.201
			C568.116,288.177,568.206,288.267,568.317,288.267z"/>
		<path d="M640.835,288.87c0.444,0,0.804-0.36,0.804-0.804c0-0.444-0.36-0.804-0.804-0.804c-0.444,0-0.805,0.36-0.805,0.804
			C640.03,288.51,640.391,288.87,640.835,288.87z"/>
		<path d="M713.353,289.674c0.888,0,1.609-0.72,1.609-1.609s-0.72-1.609-1.609-1.609c-0.889,0-1.609,0.72-1.609,1.609
			S712.464,289.674,713.353,289.674z"/>
		<circle cx="785.87" cy="288.066" r="2.413"/>
		<path d="M858.388,291.082c1.666,0,3.016-1.351,3.016-3.016c0-1.666-1.35-3.016-3.016-3.016c-1.666,0-3.016,1.35-3.016,3.016
			C855.372,289.731,856.722,291.082,858.388,291.082z"/>
		<path d="M930.906,291.484c1.888,0,3.418-1.531,3.418-3.418c0-1.888-1.531-3.418-3.418-3.418c-1.888,0-3.419,1.531-3.419,3.418
			C927.487,289.954,929.018,291.484,930.906,291.484z"/>
		<ellipse transform="matrix(0.3827 -0.9239 0.9239 0.3827 353.2917 1104.87)" cx="1003.424" cy="288.066" rx="3.619" ry="3.62"/>
		<path d="M1075.941,291.685c1.999,0,3.619-1.62,3.619-3.62c0-1.999-1.62-3.62-3.619-3.62c-1.999,0-3.62,1.621-3.62,3.62
			C1072.322,290.065,1073.942,291.685,1075.941,291.685z"/>
		<path d="M1148.459,291.484c1.888,0,3.418-1.531,3.418-3.418c0-1.888-1.531-3.418-3.418-3.418c-1.888,0-3.419,1.531-3.419,3.418
			C1145.041,289.954,1146.571,291.484,1148.459,291.484z"/>
		<path d="M1220.977,291.082c1.666,0,3.016-1.351,3.016-3.016c0-1.666-1.35-3.016-3.016-3.016c-1.666,0-3.016,1.35-3.016,3.016
			C1217.96,289.731,1219.311,291.082,1220.977,291.082z"/>
		<path d="M1293.494,290.479c1.333,0,2.414-1.081,2.414-2.413c0-1.333-1.08-2.413-2.414-2.413c-1.333,0-2.413,1.08-2.413,2.413
			C1291.081,289.398,1292.162,290.479,1293.494,290.479z"/>
		<path d="M1366.012,289.875c1,0,1.81-0.81,1.81-1.81c0-1-0.81-1.81-1.81-1.81s-1.81,0.81-1.81,1.81
			C1364.203,289.065,1365.013,289.875,1366.012,289.875z"/>
		<path d="M1438.53,289.071c0.555,0,1.005-0.45,1.005-1.005c0-0.555-0.45-1.005-1.005-1.005c-0.555,0-1.005,0.45-1.005,1.005
			C1437.525,288.621,1437.975,289.071,1438.53,289.071z"/>
		<path d="M1511.048,288.267c0.111,0,0.201-0.09,0.201-0.201c0-0.111-0.09-0.201-0.201-0.201c-0.11,0-0.201,0.09-0.201,0.201
			C1510.846,288.177,1510.937,288.267,1511.048,288.267z"/>
		<path d="M459.541,360.784c0.111,0,0.201-0.09,0.201-0.201c0-0.111-0.09-0.201-0.201-0.201s-0.201,0.09-0.201,0.201
			C459.339,360.694,459.429,360.784,459.541,360.784z"/>
		<path d="M532.058,361.589c0.555,0,1.005-0.45,1.005-1.005c0-0.555-0.45-1.005-1.005-1.005c-0.555,0-1.005,0.45-1.005,1.005
			C531.053,361.139,531.503,361.589,532.058,361.589z"/>
		<path d="M604.576,362.795c1.222,0,2.213-0.99,2.213-2.212c0-1.221-0.991-2.212-2.213-2.212c-1.221,0-2.212,0.991-2.212,2.212
			C602.364,361.805,603.354,362.795,604.576,362.795z"/>
		<path d="M677.094,363.801c1.777,0,3.217-1.44,3.217-3.217c0-1.777-1.441-3.217-3.217-3.217c-1.777,0-3.217,1.441-3.217,3.217
			C673.876,362.361,675.316,363.801,677.094,363.801z"/>
		<path d="M749.611,364.605c2.221,0,4.022-1.8,4.022-4.022c0-2.221-1.8-4.022-4.022-4.022c-2.221,0-4.022,1.801-4.022,4.022
			C745.59,362.805,747.391,364.605,749.611,364.605z"/>
		<path d="M822.129,365.208c2.554,0,4.625-2.07,4.625-4.625c0-2.554-2.071-4.625-4.625-4.625c-2.554,0-4.626,2.07-4.626,4.625
			C817.504,363.138,819.575,365.208,822.129,365.208z"/>
		<path d="M894.647,365.811c2.887,0,5.228-2.341,5.228-5.228c0-2.887-2.341-5.228-5.228-5.228c-2.887,0-5.228,2.341-5.228,5.228
			C889.419,363.471,891.76,365.811,894.647,365.811z"/>
		<path d="M967.165,366.214c3.11,0,5.631-2.521,5.631-5.63s-2.521-5.63-5.631-5.63c-3.11,0-5.63,2.52-5.63,5.63
			S964.055,366.214,967.165,366.214z"/>
		<path d="M1039.683,366.214c3.109,0,5.63-2.521,5.63-5.63s-2.521-5.63-5.63-5.63c-3.11,0-5.631,2.52-5.631,5.63
			S1036.573,366.214,1039.683,366.214z"/>
		<path d="M1112.2,366.214c3.11,0,5.63-2.521,5.63-5.63s-2.521-5.63-5.63-5.63s-5.63,2.52-5.63,5.63S1109.09,366.214,1112.2,366.214
			z"/>
		<path d="M1184.718,365.811c2.888,0,5.229-2.341,5.229-5.228c0-2.887-2.341-5.228-5.229-5.228c-2.887,0-5.228,2.341-5.228,5.228
			C1179.49,363.471,1181.83,365.811,1184.718,365.811z"/>
		<path d="M1257.236,365.409c2.665,0,4.826-2.16,4.826-4.826c0-2.666-2.161-4.826-4.826-4.826c-2.666,0-4.826,2.16-4.826,4.826
			C1252.41,363.249,1254.57,365.409,1257.236,365.409z"/>
		<path d="M1329.753,364.605c2.222,0,4.022-1.8,4.022-4.022c0-2.221-1.8-4.022-4.022-4.022c-2.221,0-4.022,1.801-4.022,4.022
			C1325.732,362.805,1327.533,364.605,1329.753,364.605z"/>
		<path d="M1402.271,363.801c1.777,0,3.218-1.44,3.218-3.217c0-1.777-1.441-3.217-3.218-3.217c-1.777,0-3.218,1.441-3.218,3.217
			C1399.053,362.361,1400.494,363.801,1402.271,363.801z"/>
		<path d="M1474.789,362.795c1.221,0,2.212-0.99,2.212-2.212c0-1.221-0.991-2.212-2.212-2.212c-1.222,0-2.212,0.991-2.212,2.212
			C1472.577,361.805,1473.567,362.795,1474.789,362.795z"/>
		<circle cx="1547.307" cy="360.583" r="1.207"/>
		<circle cx="1619.825" cy="360.583" r="0.201"/>
		<path d="M423.282,433.705c0.333,0,0.603-0.27,0.603-0.604c0-0.333-0.27-0.603-0.603-0.603c-0.333,0-0.603,0.27-0.603,0.603
			C422.678,433.434,422.949,433.705,423.282,433.705z"/>
		<path d="M495.799,435.112c1.111,0,2.012-0.901,2.012-2.012c0-1.11-0.901-2.011-2.012-2.011c-1.11,0-2.011,0.901-2.011,2.011
			C493.788,434.211,494.689,435.112,495.799,435.112z"/>
		<path d="M568.317,436.52c1.888,0,3.418-1.531,3.418-3.419c0-1.888-1.53-3.418-3.418-3.418c-1.888,0-3.418,1.531-3.418,3.418
			C564.899,434.989,566.429,436.52,568.317,436.52z"/>
		<path d="M640.835,437.525c2.443,0,4.424-1.981,4.424-4.425c0-2.443-1.981-4.424-4.424-4.424c-2.443,0-4.424,1.981-4.424,4.424
			C636.411,435.545,638.391,437.525,640.835,437.525z"/>
		<path d="M713.353,438.531c2.999,0,5.429-2.431,5.429-5.43c0-2.999-2.431-5.429-5.429-5.429s-5.43,2.431-5.43,5.429
			C707.923,436.099,710.354,438.531,713.353,438.531z"/>
		<path d="M785.87,439.536c3.554,0,6.435-2.881,6.435-6.435c0-3.553-2.881-6.435-6.435-6.435c-3.554,0-6.435,2.882-6.435,6.435
			C779.436,436.655,782.316,439.536,785.87,439.536z"/>
		<path d="M858.388,440.139c3.887,0,7.038-3.151,7.038-7.039c0-3.887-3.152-7.038-7.038-7.038c-3.887,0-7.038,3.151-7.038,7.038
			C851.35,436.988,854.501,440.139,858.388,440.139z"/>
		<path d="M930.906,440.542c4.109,0,7.44-3.332,7.44-7.441c0-4.109-3.332-7.44-7.44-7.44c-4.109,0-7.441,3.331-7.441,7.44
			C923.465,437.21,926.797,440.542,930.906,440.542z"/>
		<path d="M1003.424,440.743c4.221,0,7.641-3.421,7.641-7.642c0-4.22-3.421-7.641-7.641-7.641c-4.221,0-7.641,3.421-7.641,7.641
			C995.782,437.321,999.203,440.743,1003.424,440.743z"/>
		<path d="M1075.941,440.944c4.332,0,7.843-3.511,7.843-7.843c0-4.331-3.511-7.842-7.843-7.842c-4.331,0-7.842,3.511-7.842,7.842
			C1068.099,437.432,1071.61,440.944,1075.941,440.944z"/>
		<path d="M1148.459,440.542c4.108,0,7.44-3.332,7.44-7.441c0-4.109-3.332-7.44-7.44-7.44c-4.109,0-7.441,3.331-7.441,7.44
			C1141.018,437.21,1144.35,440.542,1148.459,440.542z"/>
		<path d="M1220.977,440.139c3.887,0,7.038-3.151,7.038-7.039c0-3.887-3.151-7.038-7.038-7.038c-3.887,0-7.038,3.151-7.038,7.038
			C1213.939,436.988,1217.09,440.139,1220.977,440.139z"/>
		<path d="M1293.494,439.536c3.554,0,6.435-2.881,6.435-6.435c0-3.553-2.881-6.435-6.435-6.435c-3.553,0-6.435,2.882-6.435,6.435
			C1287.06,436.655,1289.941,439.536,1293.494,439.536z"/>
		<path d="M1366.012,438.732c3.11,0,5.63-2.521,5.63-5.631c0-3.109-2.521-5.63-5.63-5.63c-3.11,0-5.63,2.521-5.63,5.63
			C1360.382,436.211,1362.903,438.732,1366.012,438.732z"/>
		<path d="M1438.53,437.726c2.554,0,4.625-2.071,4.625-4.626c0-2.554-2.07-4.625-4.625-4.625s-4.625,2.071-4.625,4.625
			C1433.905,435.655,1435.975,437.726,1438.53,437.726z"/>
		<path d="M1511.048,436.52c1.888,0,3.419-1.531,3.419-3.419c0-1.888-1.531-3.418-3.419-3.418c-1.888,0-3.419,1.531-3.419,3.418
			C1507.629,434.989,1509.16,436.52,1511.048,436.52z"/>
		<path d="M1583.566,435.313c1.221,0,2.212-0.991,2.212-2.213c0-1.221-0.991-2.212-2.212-2.212c-1.222,0-2.212,0.991-2.212,2.212
			C1581.354,434.323,1582.344,435.313,1583.566,435.313z"/>
		<path d="M1656.083,433.906c0.444,0,0.804-0.36,0.804-0.805c0-0.444-0.36-0.804-0.804-0.804c-0.444,0-0.804,0.36-0.804,0.804
			C1655.279,433.546,1655.639,433.906,1656.083,433.906z"/>
		<path d="M314.505,505.82c0.111,0,0.201-0.09,0.201-0.201s-0.09-0.201-0.201-0.201c-0.111,0-0.201,0.09-0.201,0.201
			S314.394,505.82,314.505,505.82z"/>
		<ellipse transform="matrix(0.987 -0.1609 0.1609 0.987 -76.3117 68.86)" cx="387.022" cy="505.619" rx="1.408" ry="1.408"/>
		<path d="M459.541,508.434c1.555,0,2.815-1.26,2.815-2.815s-1.26-2.815-2.815-2.815s-2.815,1.26-2.815,2.815
			S457.986,508.434,459.541,508.434z"/>
		<path d="M532.058,509.842c2.332,0,4.223-1.891,4.223-4.223c0-2.333-1.891-4.223-4.223-4.223c-2.332,0-4.223,1.89-4.223,4.223
			C527.835,507.951,529.726,509.842,532.058,509.842z"/>
		<path d="M604.576,511.249c3.11,0,5.631-2.521,5.631-5.63s-2.521-5.63-5.631-5.63c-3.109,0-5.63,2.521-5.63,5.63
			S601.466,511.249,604.576,511.249z"/>
		<ellipse transform="matrix(0.0714 -0.9974 0.9974 0.0714 124.4054 1144.8701)" cx="677.094" cy="505.619" rx="6.837" ry="6.837"/>
		<path d="M749.611,513.461c4.332,0,7.843-3.511,7.843-7.842c0-4.332-3.511-7.842-7.843-7.842c-4.331,0-7.842,3.51-7.842,7.842
			C741.769,509.95,745.28,513.461,749.611,513.461z"/>
		<path d="M822.129,514.266c4.775,0,8.647-3.871,8.647-8.647c0-4.776-3.871-8.647-8.647-8.647c-4.776,0-8.647,3.871-8.647,8.647
			C813.482,510.394,817.354,514.266,822.129,514.266z"/>
		<path d="M894.647,514.869c5.109,0,9.25-4.141,9.25-9.25c0-5.109-4.141-9.25-9.25-9.25c-5.109,0-9.25,4.142-9.25,9.25
			C885.397,510.728,889.538,514.869,894.647,514.869z"/>
		<path d="M967.165,515.271c5.331,0,9.653-4.321,9.653-9.652c0-5.331-4.322-9.653-9.653-9.653c-5.331,0-9.652,4.321-9.652,9.653
			C957.512,510.949,961.834,515.271,967.165,515.271z"/>
		<path d="M1039.683,515.472c5.442,0,9.853-4.411,9.853-9.853c0-5.442-4.411-9.854-9.853-9.854c-5.442,0-9.854,4.412-9.854,9.854
			C1029.829,511.061,1034.241,515.472,1039.683,515.472z"/>
		<path d="M1112.2,515.271c5.33,0,9.652-4.321,9.652-9.652c0-5.331-4.322-9.653-9.652-9.653s-9.652,4.321-9.652,9.653
			C1102.548,510.949,1106.87,515.271,1112.2,515.271z"/>
		<path d="M1184.718,515.07c5.22,0,9.452-4.232,9.452-9.451c0-5.22-4.232-9.452-9.452-9.452c-5.219,0-9.451,4.232-9.451,9.452
			C1175.267,510.838,1179.498,515.07,1184.718,515.07z"/>
		<path d="M1257.236,514.467c4.886,0,8.848-3.961,8.848-8.848c0-4.886-3.961-8.848-8.848-8.848c-4.887,0-8.848,3.962-8.848,8.848
			C1248.387,510.505,1252.349,514.467,1257.236,514.467z"/>
		<ellipse transform="matrix(0.9732 -0.2298 0.2298 0.9732 -80.5949 319.0388)" cx="1329.753" cy="505.619" rx="8.043" ry="8.043"/>
		<path d="M1402.271,512.456c3.776,0,6.837-3.061,6.837-6.837c0-3.776-3.061-6.837-6.837-6.837c-3.776,0-6.837,3.06-6.837,6.837
			C1395.434,509.395,1398.495,512.456,1402.271,512.456z"/>
		<path d="M1474.789,511.45c3.22,0,5.832-2.611,5.832-5.831c0-3.221-2.611-5.831-5.832-5.831c-3.221,0-5.831,2.61-5.831,5.831
			C1468.958,508.839,1471.568,511.45,1474.789,511.45z"/>
		<path d="M1547.307,510.043c2.443,0,4.424-1.981,4.424-4.424s-1.981-4.424-4.424-4.424c-2.443,0-4.424,1.981-4.424,4.424
			S1544.864,510.043,1547.307,510.043z"/>
		<path d="M1619.825,508.635c1.665,0,3.016-1.35,3.016-3.016s-1.351-3.016-3.016-3.016c-1.666,0-3.017,1.35-3.017,3.016
			S1618.159,508.635,1619.825,508.635z"/>
		<circle cx="1692.342" cy="505.619" r="1.408"/>
		<circle cx="1764.86" cy="505.619" r="0.201"/>
		<path d="M278.246,578.539c0.222,0,0.402-0.18,0.402-0.402c0-0.222-0.18-0.402-0.402-0.402c-0.222,0-0.402,0.18-0.402,0.402
			C277.844,578.359,278.024,578.539,278.246,578.539z"/>
		<path d="M350.764,579.946c0.999,0,1.81-0.81,1.81-1.81s-0.81-1.81-1.81-1.81c-0.999,0-1.81,0.81-1.81,1.81
			S349.765,579.946,350.764,579.946z"/>
		<path d="M423.282,581.756c1.999,0,3.619-1.621,3.619-3.62c0-1.999-1.62-3.62-3.619-3.62c-1.999,0-3.62,1.62-3.62,3.62
			C419.662,580.135,421.283,581.756,423.282,581.756z"/>
		<path d="M495.799,583.164c2.777,0,5.028-2.25,5.028-5.027c0-2.776-2.251-5.027-5.028-5.027c-2.776,0-5.027,2.251-5.027,5.027
			C490.772,580.913,493.023,583.164,495.799,583.164z"/>
		<ellipse transform="matrix(0.9998 -0.0212 0.0212 0.9998 -12.1085 12.1575)" cx="568.317" cy="578.136" rx="6.636" ry="6.636"/>
		<path d="M640.835,586.18c4.442,0,8.043-3.602,8.043-8.044c0-4.442-3.601-8.043-8.043-8.043c-4.442,0-8.043,3.601-8.043,8.043
			C632.792,582.579,636.392,586.18,640.835,586.18z"/>
		<path d="M713.353,587.186c4.998,0,9.049-4.052,9.049-9.049c0-4.998-4.051-9.049-9.049-9.049c-4.998,0-9.049,4.051-9.049,9.049
			C704.303,583.134,708.354,587.186,713.353,587.186z"/>
		<path d="M785.87,588.392c5.664,0,10.255-4.592,10.255-10.256c0-5.664-4.591-10.255-10.255-10.255
			c-5.664,0-10.256,4.592-10.256,10.255C775.614,583.801,780.206,588.392,785.87,588.392z"/>
		<path d="M858.388,589.197c6.108,0,11.06-4.952,11.06-11.06s-4.952-11.06-11.06-11.06c-6.109,0-11.06,4.951-11.06,11.06
			S852.279,589.197,858.388,589.197z"/>
		<path d="M930.906,589.8c6.441,0,11.663-5.222,11.663-11.664s-5.221-11.663-11.663-11.663c-6.442,0-11.664,5.222-11.664,11.663
			S924.464,589.8,930.906,589.8z"/>
		<path d="M1003.424,590.001c6.552,0,11.864-5.312,11.864-11.865c0-6.553-5.311-11.864-11.864-11.864
			c-6.553,0-11.865,5.311-11.865,11.864C991.559,584.689,996.871,590.001,1003.424,590.001z"/>
		<path d="M1075.941,590.001c6.552,0,11.865-5.312,11.865-11.865c0-6.553-5.312-11.864-11.865-11.864
			c-6.553,0-11.864,5.311-11.864,11.864C1064.077,584.689,1069.389,590.001,1075.941,590.001z"/>
		<path d="M1148.459,589.8c6.441,0,11.663-5.222,11.663-11.664s-5.221-11.663-11.663-11.663c-6.441,0-11.664,5.222-11.664,11.663
			S1142.018,589.8,1148.459,589.8z"/>
		<path d="M1220.977,589.197c6.109,0,11.06-4.952,11.06-11.06s-4.951-11.06-11.06-11.06c-6.108,0-11.059,4.951-11.059,11.06
			S1214.868,589.197,1220.977,589.197z"/>
		<path d="M1293.494,588.392c5.664,0,10.256-4.592,10.256-10.256c0-5.664-4.592-10.255-10.256-10.255
			c-5.664,0-10.255,4.592-10.255,10.255C1283.239,583.801,1287.831,588.392,1293.494,588.392z"/>
		<path d="M1366.012,587.387c5.109,0,9.25-4.142,9.25-9.251s-4.141-9.25-9.25-9.25c-5.109,0-9.251,4.141-9.251,9.25
			S1360.904,587.387,1366.012,587.387z"/>
		<path d="M1438.53,586.18c4.442,0,8.043-3.602,8.043-8.044c0-4.442-3.601-8.043-8.043-8.043s-8.043,3.601-8.043,8.043
			C1430.487,582.579,1434.088,586.18,1438.53,586.18z"/>
		<path d="M1511.048,584.772c3.665,0,6.636-2.971,6.636-6.636c0-3.664-2.971-6.636-6.636-6.636c-3.665,0-6.636,2.971-6.636,6.636
			C1504.412,581.802,1507.383,584.772,1511.048,584.772z"/>
		<path d="M1583.566,583.365c2.887,0,5.228-2.341,5.228-5.228c0-2.887-2.341-5.228-5.228-5.228c-2.887,0-5.228,2.341-5.228,5.228
			C1578.338,581.024,1580.678,583.365,1583.566,583.365z"/>
		<circle cx="1656.083" cy="578.136" r="3.619"/>
		<path d="M1728.601,580.147c1.11,0,2.011-0.9,2.011-2.011c0-1.111-0.901-2.011-2.011-2.011c-1.111,0-2.012,0.9-2.012,2.011
			C1726.59,579.247,1727.491,580.147,1728.601,580.147z"/>
		<circle cx="1801.119" cy="578.136" r="0.402"/>
		<path d="M241.987,651.057c0.222,0,0.402-0.181,0.402-0.402c0-0.222-0.18-0.402-0.402-0.402c-0.222,0-0.402,0.18-0.402,0.402
			C241.585,650.876,241.765,651.057,241.987,651.057z"/>
		<path d="M314.505,652.867c1.222,0,2.212-0.991,2.212-2.212c0-1.222-0.99-2.213-2.212-2.213c-1.222,0-2.212,0.991-2.212,2.213
			C312.293,651.876,313.283,652.867,314.505,652.867z"/>
		<path d="M387.022,654.475c2.11,0,3.821-1.711,3.821-3.821c0-2.11-1.711-3.821-3.821-3.821c-2.109,0-3.821,1.711-3.821,3.821
			C383.202,652.764,384.913,654.475,387.022,654.475z"/>
		<path d="M459.541,656.285c3.11,0,5.63-2.521,5.63-5.63c0-3.11-2.521-5.631-5.63-5.631s-5.63,2.521-5.63,5.631
			C453.91,653.764,456.431,656.285,459.541,656.285z"/>
		<path d="M532.058,657.894c3.998,0,7.239-3.241,7.239-7.239s-3.241-7.24-7.239-7.24c-3.998,0-7.239,3.242-7.239,7.24
			S528.06,657.894,532.058,657.894z"/>
		<path d="M604.576,659.502c4.887,0,8.848-3.961,8.848-8.848c0-4.887-3.961-8.848-8.848-8.848c-4.886,0-8.848,3.961-8.848,8.848
			C595.728,655.541,599.689,659.502,604.576,659.502z"/>
		<path d="M677.094,660.91c5.664,0,10.255-4.592,10.255-10.255c0-5.664-4.591-10.256-10.255-10.256
			c-5.664,0-10.256,4.592-10.256,10.256C666.838,656.318,671.43,660.91,677.094,660.91z"/>
		<path d="M749.611,662.116c6.331,0,11.462-5.132,11.462-11.462c0-6.331-5.132-11.463-11.462-11.463
			c-6.33,0-11.462,5.132-11.462,11.463C738.149,656.985,743.281,662.116,749.611,662.116z"/>
		<path d="M822.129,663.122c6.885,0,12.467-5.582,12.467-12.467c0-6.886-5.582-12.468-12.467-12.468
			c-6.886,0-12.468,5.582-12.468,12.468C809.662,657.54,815.243,663.122,822.129,663.122z"/>
		<path d="M894.647,663.926c7.33,0,13.271-5.942,13.271-13.271c0-7.33-5.942-13.272-13.271-13.272s-13.272,5.942-13.272,13.272
			C881.375,657.984,887.317,663.926,894.647,663.926z"/>
		<path d="M967.165,664.529c7.663,0,13.875-6.212,13.875-13.875c0-7.663-6.212-13.875-13.875-13.875
			c-7.663,0-13.875,6.212-13.875,13.875C953.29,658.317,959.502,664.529,967.165,664.529z"/>
		<path d="M1039.683,664.73c7.774,0,14.076-6.302,14.076-14.076c0-7.774-6.302-14.077-14.076-14.077
			c-7.775,0-14.077,6.302-14.077,14.077C1025.606,658.428,1031.908,664.73,1039.683,664.73z"/>
		<path d="M1112.2,664.529c7.663,0,13.875-6.212,13.875-13.875c0-7.663-6.212-13.875-13.875-13.875
			c-7.663,0-13.875,6.212-13.875,13.875C1098.325,658.317,1104.537,664.529,1112.2,664.529z"/>
		<path d="M1184.718,664.127c7.441,0,13.473-6.032,13.473-13.473c0-7.442-6.032-13.473-13.473-13.473
			c-7.441,0-13.473,6.032-13.473,13.473C1171.245,658.096,1177.277,664.127,1184.718,664.127z"/>
		<path d="M1257.236,663.323c6.997,0,12.668-5.672,12.668-12.668c0-6.997-5.672-12.669-12.668-12.669
			c-6.997,0-12.669,5.672-12.669,12.669C1244.567,657.651,1250.239,663.323,1257.236,663.323z"/>
		<path d="M1329.753,662.116c6.33,0,11.463-5.132,11.463-11.462c0-6.331-5.132-11.463-11.463-11.463
			c-6.33,0-11.462,5.132-11.462,11.463C1318.292,656.985,1323.423,662.116,1329.753,662.116z"/>
		<path d="M1402.271,661.111c5.775,0,10.457-4.682,10.457-10.456c0-5.775-4.682-10.457-10.457-10.457
			c-5.775,0-10.457,4.682-10.457,10.457C1391.814,656.429,1396.496,661.111,1402.271,661.111z"/>
		<path d="M1474.789,659.502c4.886,0,8.848-3.961,8.848-8.848c0-4.887-3.961-8.848-8.848-8.848c-4.886,0-8.848,3.961-8.848,8.848
			C1465.941,655.541,1469.903,659.502,1474.789,659.502z"/>
		<path d="M1547.307,658.095c4.109,0,7.44-3.332,7.44-7.44c0-4.109-3.331-7.441-7.44-7.441c-4.109,0-7.44,3.331-7.44,7.441
			C1539.866,654.763,1543.197,658.095,1547.307,658.095z"/>
		<path d="M1619.825,656.486c3.22,0,5.832-2.611,5.832-5.831c0-3.221-2.611-5.832-5.832-5.832c-3.221,0-5.832,2.611-5.832,5.832
			C1613.993,653.875,1616.604,656.486,1619.825,656.486z"/>
		<path d="M1692.342,654.676c2.221,0,4.022-1.801,4.022-4.022c0-2.221-1.801-4.022-4.022-4.022c-2.221,0-4.022,1.801-4.022,4.022
			C1688.321,652.875,1690.121,654.676,1692.342,654.676z"/>
		<path d="M1764.86,653.068c1.333,0,2.413-1.081,2.413-2.413c0-1.333-1.08-2.414-2.413-2.414c-1.333,0-2.413,1.081-2.413,2.414
			C1762.447,651.987,1763.527,653.068,1764.86,653.068z"/>
		<path d="M1837.378,651.258c0.333,0,0.603-0.27,0.603-0.603c0-0.334-0.27-0.603-0.603-0.603c-0.334,0-0.603,0.27-0.603,0.603
			C1836.775,650.988,1837.044,651.258,1837.378,651.258z"/>
		<path d="M205.729,723.574c0.222,0,0.402-0.18,0.402-0.402c0-0.222-0.18-0.402-0.402-0.402c-0.223,0-0.402,0.18-0.402,0.402
			C205.326,723.394,205.506,723.574,205.729,723.574z"/>
		<path d="M278.246,725.384c1.222,0,2.212-0.991,2.212-2.212c0-1.222-0.99-2.212-2.212-2.212c-1.221,0-2.212,0.99-2.212,2.212
			C276.034,724.393,277.025,725.384,278.246,725.384z"/>
		<circle cx="350.764" cy="723.172" r="4.022"/>
		<circle cx="423.282" cy="723.172" r="6.032"/>
		<path d="M495.799,730.813c4.22,0,7.642-3.421,7.642-7.641c0-4.221-3.421-7.641-7.642-7.641c-4.22,0-7.641,3.421-7.641,7.641
			C488.158,727.392,491.579,730.813,495.799,730.813z"/>
		<path d="M568.317,732.623c5.219,0,9.451-4.232,9.451-9.451c0-5.22-4.232-9.451-9.451-9.451c-5.22,0-9.452,4.231-9.452,9.451
			C558.865,728.391,563.097,732.623,568.317,732.623z"/>
		<path d="M640.835,734.232c6.108,0,11.06-4.951,11.06-11.06s-4.952-11.06-11.06-11.06c-6.109,0-11.06,4.952-11.06,11.06
			S634.726,734.232,640.835,734.232z"/>
		<path d="M713.353,735.639c6.885,0,12.467-5.582,12.467-12.467c0-6.885-5.582-12.468-12.467-12.468
			c-6.886,0-12.468,5.582-12.468,12.468C700.885,730.058,706.467,735.639,713.353,735.639z"/>
		<path d="M785.87,737.047c7.663,0,13.875-6.211,13.875-13.875c0-7.663-6.211-13.876-13.875-13.876
			c-7.663,0-13.875,6.212-13.875,13.876C771.995,730.835,778.207,737.047,785.87,737.047z"/>
		<path d="M858.388,738.053c8.219,0,14.881-6.662,14.881-14.881c0-8.219-6.662-14.881-14.881-14.881
			c-8.218,0-14.88,6.662-14.88,14.881C843.508,731.391,850.17,738.053,858.388,738.053z"/>
		<path d="M930.906,738.857c8.662,0,15.685-7.023,15.685-15.685c0-8.663-7.023-15.685-15.685-15.685
			c-8.663,0-15.685,7.022-15.685,15.685C915.221,731.835,922.243,738.857,930.906,738.857z"/>
		
			<ellipse transform="matrix(0.3827 -0.9239 0.9239 0.3827 -48.6942 1373.4681)" cx="1003.424" cy="723.172" rx="16.087" ry="16.087"/>
		<path d="M1075.941,739.26c8.885,0,16.087-7.203,16.087-16.087c0-8.885-7.202-16.087-16.087-16.087
			c-8.885,0-16.087,7.203-16.087,16.087C1059.854,732.057,1067.057,739.26,1075.941,739.26z"/>
		<path d="M1148.459,738.857c8.662,0,15.684-7.023,15.684-15.685c0-8.663-7.022-15.685-15.684-15.685
			c-8.663,0-15.685,7.022-15.685,15.685C1132.774,731.835,1139.797,738.857,1148.459,738.857z"/>
		
			<ellipse transform="matrix(0.9871 -0.1602 0.1602 0.9871 -100.0732 204.9161)" cx="1220.977" cy="723.172" rx="14.881" ry="14.881"/>
		<path d="M1293.494,737.047c7.663,0,13.875-6.211,13.875-13.875c0-7.663-6.212-13.876-13.875-13.876
			c-7.663,0-13.875,6.212-13.875,13.876C1279.62,730.835,1285.832,737.047,1293.494,737.047z"/>
		<path d="M1366.012,735.84c6.997,0,12.668-5.672,12.668-12.668s-5.672-12.669-12.668-12.669s-12.669,5.672-12.669,12.669
			S1359.016,735.84,1366.012,735.84z"/>
		<path d="M1438.53,734.232c6.109,0,11.06-4.951,11.06-11.06s-4.952-11.06-11.06-11.06c-6.108,0-11.06,4.952-11.06,11.06
			S1432.422,734.232,1438.53,734.232z"/>
		<path d="M1511.048,732.824c5.331,0,9.652-4.321,9.652-9.652s-4.321-9.652-9.652-9.652c-5.331,0-9.652,4.322-9.652,9.652
			S1505.717,732.824,1511.048,732.824z"/>
		<ellipse transform="matrix(0.9871 -0.1602 0.1602 0.9871 -95.3913 262.9963)" cx="1583.566" cy="723.172" rx="7.842" ry="7.842"/>
		<circle cx="1656.083" cy="723.172" r="6.032"/>
		<path d="M1728.601,727.395c2.332,0,4.223-1.891,4.223-4.223c0-2.332-1.891-4.223-4.223-4.223c-2.333,0-4.223,1.891-4.223,4.223
			C1724.378,725.504,1726.269,727.395,1728.601,727.395z"/>
		<circle cx="1801.119" cy="723.172" r="2.413"/>
		<path d="M1873.636,723.775c0.334,0,0.603-0.27,0.603-0.603c0-0.333-0.27-0.603-0.603-0.603c-0.333,0-0.603,0.27-0.603,0.603
			C1873.033,723.505,1873.303,723.775,1873.636,723.775z"/>
		<circle cx="169.469" cy="795.69" r="0.402"/>
		<path d="M241.987,797.7c1.11,0,2.011-0.9,2.011-2.011c0-1.11-0.901-2.011-2.011-2.011c-1.111,0-2.011,0.901-2.011,2.011
			C239.977,796.8,240.877,797.7,241.987,797.7z"/>
		<path d="M314.505,799.711c2.221,0,4.022-1.8,4.022-4.022c0-2.221-1.8-4.022-4.022-4.022c-2.222,0-4.022,1.801-4.022,4.022
			C310.483,797.911,312.283,799.711,314.505,799.711z"/>
		<path d="M387.022,801.723c3.332,0,6.033-2.701,6.033-6.033c0-3.331-2.701-6.032-6.033-6.032c-3.331,0-6.033,2.701-6.033,6.032
			C380.99,799.022,383.691,801.723,387.022,801.723z"/>
		<path d="M459.541,803.533c4.331,0,7.842-3.511,7.842-7.843c0-4.331-3.511-7.842-7.842-7.842c-4.332,0-7.843,3.511-7.843,7.842
			C451.698,800.021,455.209,803.533,459.541,803.533z"/>
		<path d="M532.058,805.342c5.33,0,9.652-4.321,9.652-9.653c0-5.331-4.321-9.652-9.652-9.652c-5.331,0-9.652,4.321-9.652,9.652
			C522.406,801.021,526.727,805.342,532.058,805.342z"/>
		<path d="M604.576,807.152c6.331,0,11.463-5.132,11.463-11.463c0-6.33-5.132-11.462-11.463-11.462
			c-6.33,0-11.462,5.132-11.462,11.462C593.114,802.02,598.245,807.152,604.576,807.152z"/>
		<path d="M677.094,808.962c7.33,0,13.271-5.942,13.271-13.272c0-7.33-5.942-13.271-13.271-13.271
			c-7.33,0-13.272,5.942-13.272,13.271C663.821,803.02,669.763,808.962,677.094,808.962z"/>
		<path d="M749.611,810.369c8.107,0,14.68-6.572,14.68-14.68c0-8.107-6.573-14.679-14.68-14.679
			c-8.107,0-14.679,6.572-14.679,14.679C734.932,803.797,741.504,810.369,749.611,810.369z"/>
		<path d="M822.129,811.777c8.885,0,16.087-7.202,16.087-16.087c0-8.884-7.202-16.087-16.087-16.087
			c-8.885,0-16.087,7.202-16.087,16.087C806.042,804.575,813.244,811.777,822.129,811.777z"/>
		<path d="M894.647,812.984c9.551,0,17.294-7.743,17.294-17.294c0-9.551-7.743-17.293-17.294-17.293
			c-9.551,0-17.294,7.742-17.294,17.293C877.353,805.241,885.096,812.984,894.647,812.984z"/>
		<path d="M967.165,813.587c9.885,0,17.897-8.012,17.897-17.897c0-9.884-8.012-17.896-17.897-17.896
			c-9.884,0-17.897,8.012-17.897,17.896C949.268,805.574,957.28,813.587,967.165,813.587z"/>
		<path d="M1039.683,813.989c10.106,0,18.299-8.193,18.299-18.299c0-10.106-8.193-18.299-18.299-18.299
			c-10.107,0-18.299,8.192-18.299,18.299C1021.383,805.796,1029.576,813.989,1039.683,813.989z"/>
		<path d="M1112.2,813.788c9.995,0,18.098-8.103,18.098-18.098c0-9.995-8.103-18.097-18.098-18.097s-18.098,8.102-18.098,18.097
			C1094.102,805.685,1102.205,813.788,1112.2,813.788z"/>
		<path d="M1184.718,812.984c9.551,0,17.294-7.743,17.294-17.294c0-9.551-7.743-17.293-17.294-17.293
			c-9.551,0-17.293,7.742-17.293,17.293C1167.425,805.241,1175.167,812.984,1184.718,812.984z"/>
		<path d="M1257.236,811.978c8.996,0,16.288-7.293,16.288-16.289c0-8.996-7.292-16.288-16.288-16.288s-16.288,7.292-16.288,16.288
			C1240.948,804.685,1248.24,811.978,1257.236,811.978z"/>
		<path d="M1329.753,810.57c8.219,0,14.881-6.662,14.881-14.881c0-8.218-6.662-14.88-14.881-14.88
			c-8.218,0-14.881,6.662-14.881,14.88C1314.872,803.908,1321.536,810.57,1329.753,810.57z"/>
		<path d="M1402.271,808.962c7.33,0,13.272-5.942,13.272-13.272c0-7.33-5.942-13.271-13.272-13.271
			c-7.33,0-13.272,5.942-13.272,13.271C1388.999,803.02,1394.941,808.962,1402.271,808.962z"/>
		<path d="M1474.789,807.353c6.441,0,11.663-5.222,11.663-11.664c0-6.441-5.222-11.663-11.663-11.663
			c-6.441,0-11.663,5.222-11.663,11.663C1463.125,802.131,1468.348,807.353,1474.789,807.353z"/>
		<path d="M1547.307,805.543c5.442,0,9.854-4.412,9.854-9.854c0-5.442-4.412-9.853-9.854-9.853s-9.853,4.411-9.853,9.853
			C1537.454,801.131,1541.865,805.543,1547.307,805.543z"/>
		<path d="M1619.825,803.734c4.442,0,8.043-3.602,8.043-8.044c0-4.442-3.601-8.043-8.043-8.043c-4.443,0-8.044,3.601-8.044,8.043
			C1611.781,800.132,1615.382,803.734,1619.825,803.734z"/>
		<path d="M1692.342,801.924c3.443,0,6.234-2.792,6.234-6.234c0-3.443-2.791-6.234-6.234-6.234c-3.443,0-6.234,2.791-6.234,6.234
			C1686.109,799.132,1688.9,801.924,1692.342,801.924z"/>
		<path d="M1764.86,799.912c2.333,0,4.223-1.89,4.223-4.223c0-2.332-1.89-4.223-4.223-4.223c-2.332,0-4.223,1.891-4.223,4.223
			C1760.637,798.022,1762.528,799.912,1764.86,799.912z"/>
		<circle cx="1837.378" cy="795.69" r="2.212"/>
		<circle cx="1909.896" cy="795.69" r="0.402"/>
		<path d="M133.211,868.409c0.11,0,0.201-0.091,0.201-0.201c0-0.111-0.091-0.201-0.201-0.201c-0.111,0-0.201,0.09-0.201,0.201
			C133.01,868.318,133.1,868.409,133.211,868.409z"/>
		<path d="M205.729,869.817c0.888,0,1.609-0.72,1.609-1.609c0-0.889-0.72-1.609-1.609-1.609c-0.889,0-1.609,0.72-1.609,1.609
			C204.12,869.096,204.84,869.817,205.729,869.817z"/>
		<path d="M278.246,872.028c2.11,0,3.821-1.711,3.821-3.821c0-2.11-1.71-3.821-3.821-3.821c-2.109,0-3.821,1.711-3.821,3.821
			C274.425,870.317,276.136,872.028,278.246,872.028z"/>
		<path d="M350.764,874.039c3.22,0,5.831-2.611,5.831-5.831c0-3.221-2.611-5.832-5.831-5.832c-3.221,0-5.832,2.611-5.832,5.832
			C344.932,871.428,347.543,874.039,350.764,874.039z"/>
		<path d="M423.282,875.849c4.221,0,7.641-3.421,7.641-7.641c0-4.221-3.421-7.642-7.641-7.642c-4.221,0-7.641,3.421-7.641,7.642
			C415.64,872.428,419.061,875.849,423.282,875.849z"/>
		<path d="M495.799,877.86c5.331,0,9.653-4.321,9.653-9.652c0-5.331-4.321-9.653-9.653-9.653c-5.331,0-9.652,4.321-9.652,9.653
			C486.147,873.538,490.468,877.86,495.799,877.86z"/>
		<path d="M568.317,879.871c6.441,0,11.663-5.222,11.663-11.663c0-6.441-5.221-11.664-11.663-11.664s-11.664,5.222-11.664,11.664
			C556.654,874.649,561.876,879.871,568.317,879.871z"/>
		<path d="M640.835,881.68c7.441,0,13.473-6.032,13.473-13.473s-6.032-13.473-13.473-13.473c-7.441,0-13.473,6.033-13.473,13.473
			S633.394,881.68,640.835,881.68z"/>
		<path d="M713.353,883.49c8.44,0,15.282-6.842,15.282-15.282c0-8.44-6.842-15.283-15.282-15.283
			c-8.441,0-15.283,6.843-15.283,15.283C698.07,876.648,704.912,883.49,713.353,883.49z"/>
		<path d="M785.87,885.099c9.329,0,16.892-7.562,16.892-16.891c0-9.329-7.563-16.892-16.892-16.892
			c-9.329,0-16.892,7.562-16.892,16.892C768.979,877.536,776.542,885.099,785.87,885.099z"/>
		<path d="M858.388,886.506c10.106,0,18.299-8.193,18.299-18.299c0-10.107-8.193-18.299-18.299-18.299
			c-10.107,0-18.299,8.193-18.299,18.299C840.089,878.313,848.281,886.506,858.388,886.506z"/>
		<path d="M930.906,887.713c10.772,0,19.505-8.733,19.505-19.505c0-10.773-8.733-19.506-19.505-19.506
			c-10.773,0-19.506,8.733-19.506,19.506C911.4,878.98,920.133,887.713,930.906,887.713z"/>
		<path d="M1003.424,888.517c11.217,0,20.31-9.093,20.31-20.309c0-11.217-9.093-20.31-20.31-20.31
			c-11.217,0-20.31,9.093-20.31,20.31C983.113,879.424,992.206,888.517,1003.424,888.517z"/>
		<path d="M1075.941,888.517c11.217,0,20.31-9.093,20.31-20.309c0-11.217-9.093-20.31-20.31-20.31
			c-11.217,0-20.31,9.093-20.31,20.31C1055.632,879.424,1064.725,888.517,1075.941,888.517z"/>
		<path d="M1148.459,887.914c10.884,0,19.706-8.823,19.706-19.706c0-10.884-8.822-19.707-19.706-19.707
			c-10.884,0-19.707,8.823-19.707,19.707C1128.752,879.091,1137.575,887.914,1148.459,887.914z"/>
		<path d="M1220.977,886.708c10.218,0,18.5-8.283,18.5-18.5c0-10.218-8.283-18.5-18.5-18.5c-10.218,0-18.5,8.283-18.5,18.5
			C1202.476,878.425,1210.759,886.708,1220.977,886.708z"/>
		<path d="M1293.494,885.3c9.44,0,17.093-7.652,17.093-17.092c0-9.44-7.652-17.093-17.093-17.093
			c-9.44,0-17.092,7.653-17.092,17.093C1276.402,877.648,1284.054,885.3,1293.494,885.3z"/>
		<path d="M1366.012,883.691c8.552,0,15.483-6.932,15.483-15.483c0-8.552-6.932-15.484-15.483-15.484s-15.484,6.933-15.484,15.484
			C1350.528,876.759,1357.461,883.691,1366.012,883.691z"/>
		<path d="M1438.53,881.881c7.552,0,13.674-6.122,13.674-13.674c0-7.552-6.122-13.674-13.674-13.674
			c-7.552,0-13.674,6.122-13.674,13.674C1424.856,875.76,1430.978,881.881,1438.53,881.881z"/>
		<path d="M1511.048,880.072c6.552,0,11.865-5.311,11.865-11.864c0-6.553-5.312-11.865-11.865-11.865
			c-6.552,0-11.864,5.312-11.864,11.865C1499.183,874.76,1504.496,880.072,1511.048,880.072z"/>
		<path d="M1583.566,878.061c5.442,0,9.853-4.411,9.853-9.853c0-5.442-4.411-9.854-9.853-9.854c-5.442,0-9.854,4.412-9.854,9.854
			C1573.712,873.65,1578.124,878.061,1583.566,878.061z"/>
		<path d="M1656.083,876.05c4.332,0,7.843-3.511,7.843-7.842c0-4.332-3.511-7.843-7.843-7.843c-4.331,0-7.842,3.511-7.842,7.843
			C1648.241,872.539,1651.752,876.05,1656.083,876.05z"/>
		<path d="M1728.601,874.039c3.22,0,5.831-2.611,5.831-5.831c0-3.221-2.611-5.832-5.831-5.832c-3.221,0-5.832,2.611-5.832,5.832
			C1722.769,871.428,1725.38,874.039,1728.601,874.039z"/>
		<path d="M1801.119,872.229c2.221,0,4.022-1.801,4.022-4.022c0-2.221-1.8-4.022-4.022-4.022c-2.222,0-4.022,1.801-4.022,4.022
			C1797.097,870.429,1798.897,872.229,1801.119,872.229z"/>
		<path d="M1873.636,870.018c1,0,1.81-0.81,1.81-1.81c0-1-0.81-1.81-1.81-1.81s-1.81,0.81-1.81,1.81
			C1871.827,869.207,1872.637,870.018,1873.636,870.018z"/>
		<circle cx="1946.155" cy="868.208" r="0.201"/>
		<circle cx="169.469" cy="940.725" r="1.206"/>
		<path d="M241.987,943.943c1.777,0,3.217-1.441,3.217-3.217c0-1.777-1.441-3.217-3.217-3.217c-1.777,0-3.217,1.441-3.217,3.217
			C238.77,942.502,240.21,943.943,241.987,943.943z"/>
		<path d="M314.505,945.953c2.887,0,5.228-2.341,5.228-5.228c0-2.887-2.341-5.228-5.228-5.228c-2.887,0-5.228,2.341-5.228,5.228
			C309.277,943.613,311.618,945.953,314.505,945.953z"/>
		<path d="M387.022,947.964c3.998,0,7.24-3.241,7.24-7.239s-3.242-7.239-7.24-7.239c-3.998,0-7.239,3.241-7.239,7.239
			S383.024,947.964,387.022,947.964z"/>
		<path d="M459.541,949.975c5.109,0,9.25-4.141,9.25-9.25c0-5.109-4.141-9.25-9.25-9.25c-5.109,0-9.251,4.141-9.251,9.25
			C450.29,945.834,454.432,949.975,459.541,949.975z"/>
		<path d="M532.058,951.986c6.22,0,11.261-5.041,11.261-11.261s-5.042-11.261-11.261-11.261c-6.219,0-11.261,5.041-11.261,11.261
			S525.839,951.986,532.058,951.986z"/>
		<path d="M604.576,953.997c7.33,0,13.272-5.943,13.272-13.272s-5.942-13.272-13.272-13.272c-7.33,0-13.271,5.943-13.271,13.272
			S597.246,953.997,604.576,953.997z"/>
		<path d="M677.094,956.008c8.44,0,15.282-6.843,15.282-15.283c0-8.44-6.842-15.283-15.282-15.283
			c-8.44,0-15.283,6.843-15.283,15.283C661.811,949.166,668.653,956.008,677.094,956.008z"/>
		<path d="M749.611,958.019c9.551,0,17.294-7.743,17.294-17.294c0-9.551-7.743-17.294-17.294-17.294
			c-9.551,0-17.293,7.743-17.293,17.294C732.318,950.276,740.06,958.019,749.611,958.019z"/>
		<path d="M822.129,959.628c10.439,0,18.902-8.463,18.902-18.903s-8.462-18.903-18.902-18.903c-10.44,0-18.903,8.463-18.903,18.903
			S811.689,959.628,822.129,959.628z"/>
		
			<ellipse transform="matrix(0.5739 -0.8189 0.8189 0.5739 -389.1828 1133.4384)" cx="894.647" cy="940.725" rx="20.712" ry="20.712"/>
		<ellipse transform="matrix(0.8132 -0.582 0.582 0.8132 -366.8289 738.6542)" cx="967.164" cy="940.725" rx="21.919" ry="21.919"/>
		
			<ellipse transform="matrix(0.3827 -0.9239 0.9239 0.3827 -227.3033 1541.2672)" cx="1039.683" cy="940.725" rx="22.321" ry="22.321"/>
		
			<ellipse transform="matrix(0.3827 -0.9239 0.9239 0.3827 -182.5374 1608.2639)" cx="1112.2" cy="940.725" rx="21.919" ry="21.919"/>
		<path d="M1184.718,961.438c11.44,0,20.712-9.273,20.712-20.712s-9.273-20.712-20.712-20.712c-11.439,0-20.712,9.273-20.712,20.712
			S1173.279,961.438,1184.718,961.438z"/>
		<path d="M1257.236,959.829c10.551,0,19.103-8.553,19.103-19.104s-8.552-19.104-19.103-19.104c-10.55,0-19.104,8.553-19.104,19.104
			S1246.685,959.829,1257.236,959.829z"/>
		<circle cx="1329.753" cy="940.725" r="17.294"/>
		<path d="M1402.271,956.209c8.552,0,15.484-6.933,15.484-15.484c0-8.552-6.932-15.484-15.484-15.484
			c-8.551,0-15.484,6.933-15.484,15.484C1386.787,949.277,1393.72,956.209,1402.271,956.209z"/>
		<path d="M1474.789,954.199c7.441,0,13.473-6.033,13.473-13.473s-6.032-13.473-13.473-13.473c-7.441,0-13.473,6.032-13.473,13.473
			S1467.348,954.199,1474.789,954.199z"/>
		<path d="M1547.307,952.187c6.331,0,11.463-5.132,11.463-11.462c0-6.33-5.132-11.462-11.463-11.462
			c-6.33,0-11.462,5.132-11.462,11.462C1535.845,947.055,1540.976,952.187,1547.307,952.187z"/>
		<path d="M1619.825,950.176c5.219,0,9.451-4.231,9.451-9.451c0-5.22-4.232-9.451-9.451-9.451c-5.22,0-9.452,4.231-9.452,9.451
			C1610.373,945.945,1614.605,950.176,1619.825,950.176z"/>
		<path d="M1692.342,948.165c4.109,0,7.44-3.331,7.44-7.44c0-4.109-3.331-7.44-7.44-7.44c-4.109,0-7.44,3.331-7.44,7.44
			C1684.902,944.835,1688.233,948.165,1692.342,948.165z"/>
		<path d="M1764.86,946.154c2.999,0,5.429-2.431,5.429-5.429s-2.431-5.429-5.429-5.429c-2.999,0-5.429,2.431-5.429,5.429
			S1761.861,946.154,1764.86,946.154z"/>
		<path d="M1837.378,944.144c1.888,0,3.418-1.531,3.418-3.418c0-1.888-1.531-3.418-3.418-3.418c-1.889,0-3.419,1.531-3.419,3.418
			C1833.959,942.613,1835.49,944.144,1837.378,944.144z"/>
		<circle cx="1909.896" cy="940.725" r="1.408"/>
		<path d="M133.211,1013.645c0.222,0,0.402-0.18,0.402-0.402c0-0.222-0.181-0.402-0.402-0.402c-0.222,0-0.402,0.181-0.402,0.402
			C132.809,1013.465,132.988,1013.645,133.211,1013.645z"/>
		<path d="M205.729,1015.656c1.332,0,2.413-1.08,2.413-2.413c0-1.333-1.081-2.413-2.413-2.413c-1.333,0-2.413,1.081-2.413,2.413
			C203.315,1014.576,204.396,1015.656,205.729,1015.656z"/>
		<path d="M278.246,1017.667c2.443,0,4.425-1.981,4.425-4.424s-1.981-4.424-4.425-4.424c-2.443,0-4.424,1.981-4.424,4.424
			S275.803,1017.667,278.246,1017.667z"/>
		<path d="M350.764,1019.879c3.664,0,6.636-2.971,6.636-6.636c0-3.664-2.971-6.636-6.636-6.636c-3.665,0-6.637,2.971-6.637,6.636
			C344.128,1016.908,347.099,1019.879,350.764,1019.879z"/>
		<path d="M423.282,1021.89c4.776,0,8.646-3.871,8.646-8.647c0-4.775-3.871-8.647-8.646-8.647c-4.775,0-8.647,3.871-8.647,8.647
			C414.635,1018.019,418.506,1021.89,423.282,1021.89z"/>
		<path d="M495.799,1024.102c5.997,0,10.859-4.862,10.859-10.859c0-5.997-4.862-10.859-10.859-10.859
			c-5.997,0-10.859,4.861-10.859,10.859C484.94,1019.24,489.802,1024.102,495.799,1024.102z"/>
		<path d="M568.317,1026.113c7.108,0,12.869-5.762,12.869-12.87c0-7.107-5.761-12.869-12.869-12.869s-12.87,5.762-12.87,12.869
			C555.447,1020.351,561.209,1026.113,568.317,1026.113z"/>
		<path d="M640.835,1028.124c8.219,0,14.881-6.662,14.881-14.881c0-8.218-6.662-14.88-14.881-14.88
			c-8.218,0-14.88,6.662-14.88,14.88C625.954,1021.461,632.617,1028.124,640.835,1028.124z"/>
		<path d="M713.353,1030.135c9.329,0,16.891-7.562,16.891-16.892c0-9.329-7.562-16.891-16.891-16.891
			c-9.329,0-16.892,7.562-16.892,16.891C696.461,1022.572,704.023,1030.135,713.353,1030.135z"/>
		<path d="M785.87,1032.145c10.44,0,18.903-8.462,18.903-18.903c0-10.439-8.463-18.902-18.903-18.902
			c-10.439,0-18.903,8.463-18.903,18.902C766.968,1023.683,775.431,1032.145,785.87,1032.145z"/>
		<path d="M858.388,1034.156c11.55,0,20.913-9.363,20.913-20.913c0-11.55-9.363-20.913-20.913-20.913
			c-11.55,0-20.914,9.363-20.914,20.913C837.474,1024.793,846.838,1034.156,858.388,1034.156z"/>
		<circle cx="930.906" cy="1013.243" r="22.723"/>
		
			<ellipse transform="matrix(0.9526 -0.3044 0.3044 0.9526 -260.7934 353.4888)" cx="1003.424" cy="1013.243" rx="24.131" ry="24.131"/>
		
			<ellipse transform="matrix(0.9487 -0.3162 0.3162 0.9487 -265.2018 392.2387)" cx="1075.941" cy="1013.243" rx="24.332" ry="24.332"/>
		
			<ellipse transform="matrix(0.9732 -0.2298 0.2298 0.9732 -202.0733 290.9677)" cx="1148.459" cy="1013.243" rx="22.924" ry="22.924"/>
		<path d="M1220.977,1034.357c11.661,0,21.115-9.453,21.115-21.115c0-11.661-9.453-21.114-21.115-21.114
			c-11.661,0-21.115,9.453-21.115,21.114C1199.862,1024.904,1209.315,1034.357,1220.977,1034.357z"/>
		<path d="M1293.494,1032.346c10.55,0,19.104-8.553,19.104-19.104c0-10.551-8.553-19.103-19.104-19.103
			c-10.551,0-19.103,8.552-19.103,19.103C1274.391,1023.793,1282.944,1032.346,1293.494,1032.346z"/>
		<path d="M1366.012,1030.336c9.44,0,17.092-7.652,17.092-17.093c0-9.44-7.652-17.092-17.092-17.092
			c-9.44,0-17.093,7.652-17.093,17.092C1348.92,1022.683,1356.573,1030.336,1366.012,1030.336z"/>
		<path d="M1438.53,1028.325c8.329,0,15.082-6.752,15.082-15.082c0-8.329-6.753-15.081-15.082-15.081
			c-8.329,0-15.081,6.752-15.081,15.081C1423.449,1021.573,1430.201,1028.325,1438.53,1028.325z"/>
		<path d="M1511.048,1026.314c7.219,0,13.071-5.852,13.071-13.071c0-7.218-5.852-13.07-13.071-13.07
			c-7.218,0-13.071,5.852-13.071,13.07C1497.977,1020.462,1503.829,1026.314,1511.048,1026.314z"/>
		<path d="M1583.566,1024.303c6.108,0,11.06-4.952,11.06-11.06c0-6.108-4.951-11.06-11.06-11.06c-6.108,0-11.06,4.952-11.06,11.06
			C1572.505,1019.351,1577.457,1024.303,1583.566,1024.303z"/>
		<path d="M1656.083,1022.091c4.886,0,8.849-3.961,8.849-8.848c0-4.886-3.962-8.848-8.849-8.848c-4.886,0-8.848,3.961-8.848,8.848
			C1647.235,1018.13,1651.197,1022.091,1656.083,1022.091z"/>
		<path d="M1728.601,1020.08c3.776,0,6.837-3.061,6.837-6.838c0-3.776-3.061-6.837-6.837-6.837c-3.776,0-6.838,3.061-6.838,6.837
			C1721.764,1017.019,1724.825,1020.08,1728.601,1020.08z"/>
		<path d="M1801.119,1017.868c2.554,0,4.625-2.071,4.625-4.626c0-2.555-2.071-4.625-4.625-4.625c-2.554,0-4.625,2.07-4.625,4.625
			C1796.494,1015.797,1798.565,1017.868,1801.119,1017.868z"/>
		<circle cx="1873.636" cy="1013.243" r="2.614"/>
		<path d="M1946.155,1013.846c0.333,0,0.603-0.27,0.603-0.603c0-0.333-0.27-0.603-0.603-0.603c-0.334,0-0.603,0.27-0.603,0.603
			C1945.551,1013.576,1945.821,1013.846,1946.155,1013.846z"/>
		<circle cx="169.469" cy="1085.761" r="1.609"/>
		<circle cx="241.987" cy="1085.761" r="3.619"/>
		<path d="M314.505,1091.391c3.11,0,5.63-2.521,5.63-5.63c0-3.11-2.521-5.63-5.63-5.63c-3.11,0-5.63,2.521-5.63,5.63
			C308.875,1088.871,311.395,1091.391,314.505,1091.391z"/>
		<path d="M387.022,1093.603c4.332,0,7.843-3.511,7.843-7.842c0-4.332-3.511-7.843-7.843-7.843c-4.331,0-7.842,3.511-7.842,7.843
			C379.18,1090.092,382.691,1093.603,387.022,1093.603z"/>
		<path d="M459.541,1095.614c5.442,0,9.853-4.411,9.853-9.853s-4.411-9.854-9.853-9.854s-9.854,4.412-9.854,9.854
			S454.099,1095.614,459.541,1095.614z"/>
		<path d="M532.058,1097.826c6.664,0,12.066-5.402,12.066-12.065c0-6.664-5.402-12.066-12.066-12.066
			c-6.664,0-12.065,5.402-12.065,12.066C519.993,1092.424,525.394,1097.826,532.058,1097.826z"/>
		<path d="M604.576,1099.837c7.775,0,14.077-6.302,14.077-14.076c0-7.775-6.302-14.077-14.077-14.077
			c-7.774,0-14.076,6.302-14.076,14.077C590.5,1093.535,596.802,1099.837,604.576,1099.837z"/>
		<path d="M677.094,1101.848c8.884,0,16.087-7.202,16.087-16.087c0-8.885-7.202-16.087-16.087-16.087
			c-8.885,0-16.087,7.202-16.087,16.087C661.006,1094.646,668.209,1101.848,677.094,1101.848z"/>
		<path d="M749.611,1104.06c10.106,0,18.299-8.192,18.299-18.299c0-10.106-8.193-18.299-18.299-18.299
			c-10.107,0-18.299,8.193-18.299,18.299C731.312,1095.868,739.505,1104.06,749.611,1104.06z"/>
		<path d="M822.129,1106.071c11.217,0,20.309-9.094,20.309-20.31c0-11.217-9.093-20.31-20.309-20.31
			c-11.217,0-20.31,9.093-20.31,20.31C801.819,1096.978,810.912,1106.071,822.129,1106.071z"/>
		<circle cx="894.647" cy="1085.761" r="22.321"/>
		
			<ellipse transform="matrix(0.8134 -0.5817 0.5817 0.8134 -451.1158 765.1912)" cx="967.164" cy="1085.761" rx="24.533" ry="24.533"/>
		<circle cx="1039.683" cy="1085.761" r="25.941"/>
		
			<ellipse transform="matrix(0.3827 -0.9239 0.9239 0.3827 -316.5329 1697.7969)" cx="1112.2" cy="1085.761" rx="24.734" ry="24.734"/>
		<path d="M1184.718,1108.283c12.439,0,22.522-10.084,22.522-22.522c0-12.438-10.083-22.522-22.522-22.522
			c-12.439,0-22.522,10.084-22.522,22.522C1162.196,1098.199,1172.279,1108.283,1184.718,1108.283z"/>
		
			<ellipse transform="matrix(0.9732 -0.2298 0.2298 0.9732 -215.8248 317.8995)" cx="1257.236" cy="1085.761" rx="20.511" ry="20.511"/>
		<path d="M1329.753,1104.261c10.218,0,18.5-8.283,18.5-18.5c0-10.218-8.283-18.5-18.5-18.5s-18.5,8.283-18.5,18.5
			C1311.253,1095.978,1319.536,1104.261,1329.753,1104.261z"/>
		<path d="M1402.271,1102.049c8.995,0,16.288-7.292,16.288-16.288s-7.293-16.288-16.288-16.288c-8.996,0-16.288,7.293-16.288,16.288
			S1393.275,1102.049,1402.271,1102.049z"/>
		<path d="M1474.789,1100.038c7.885,0,14.277-6.392,14.277-14.277c0-7.886-6.392-14.278-14.277-14.278
			c-7.885,0-14.277,6.392-14.277,14.278C1460.511,1093.646,1466.904,1100.038,1474.789,1100.038z"/>
		<path d="M1547.307,1097.826c6.664,0,12.066-5.402,12.066-12.065c0-6.664-5.402-12.066-12.066-12.066
			c-6.664,0-12.065,5.402-12.065,12.066C1535.241,1092.424,1540.643,1097.826,1547.307,1097.826z"/>
		<path d="M1619.825,1095.815c5.552,0,10.054-4.501,10.054-10.054s-4.502-10.055-10.054-10.055c-5.553,0-10.055,4.502-10.055,10.055
			S1614.272,1095.815,1619.825,1095.815z"/>
		<path d="M1692.342,1093.804c4.442,0,8.044-3.601,8.044-8.043s-3.601-8.044-8.044-8.044c-4.442,0-8.043,3.602-8.043,8.044
			S1687.9,1093.804,1692.342,1093.804z"/>
		<circle cx="1764.86" cy="1085.761" r="5.831"/>
		<path d="M1837.378,1089.582c2.109,0,3.821-1.71,3.821-3.821c0-2.11-1.711-3.821-3.821-3.821c-2.11,0-3.821,1.71-3.821,3.821
			C1833.557,1087.871,1835.268,1089.582,1837.378,1089.582z"/>
		<circle cx="1909.896" cy="1085.761" r="1.609"/>
		<circle cx="1982.413" cy="1085.761" r="0.201"/>
		<path d="M133.211,1158.681c0.222,0,0.402-0.18,0.402-0.402c0-0.222-0.181-0.402-0.402-0.402c-0.222,0-0.402,0.181-0.402,0.402
			C132.809,1158.501,132.988,1158.681,133.211,1158.681z"/>
		<path d="M205.729,1160.692c1.332,0,2.413-1.081,2.413-2.413c0-1.333-1.081-2.413-2.413-2.413c-1.333,0-2.413,1.081-2.413,2.413
			C203.315,1159.611,204.396,1160.692,205.729,1160.692z"/>
		<path d="M278.246,1162.903c2.554,0,4.626-2.071,4.626-4.625c0-2.555-2.071-4.625-4.626-4.625c-2.554,0-4.625,2.07-4.625,4.625
			C273.621,1160.833,275.691,1162.903,278.246,1162.903z"/>
		<path d="M350.764,1164.914c3.664,0,6.636-2.971,6.636-6.636c0-3.665-2.971-6.636-6.636-6.636c-3.665,0-6.637,2.971-6.637,6.636
			C344.128,1161.944,347.099,1164.914,350.764,1164.914z"/>
		<path d="M423.282,1166.925c4.776,0,8.646-3.871,8.646-8.647c0-4.775-3.871-8.647-8.646-8.647c-4.775,0-8.647,3.871-8.647,8.647
			C414.635,1163.054,418.506,1166.925,423.282,1166.925z"/>
		<path d="M495.799,1169.138c5.997,0,10.859-4.862,10.859-10.859c0-5.997-4.862-10.859-10.859-10.859
			c-5.997,0-10.859,4.861-10.859,10.859C484.94,1164.276,489.802,1169.138,495.799,1169.138z"/>
		<path d="M568.317,1171.149c7.108,0,12.869-5.762,12.869-12.87s-5.761-12.869-12.869-12.869s-12.87,5.761-12.87,12.869
			S561.209,1171.149,568.317,1171.149z"/>
		<path d="M640.835,1173.159c8.219,0,14.881-6.662,14.881-14.881c0-8.218-6.662-14.88-14.881-14.88
			c-8.218,0-14.88,6.662-14.88,14.88C625.954,1166.497,632.617,1173.159,640.835,1173.159z"/>
		<path d="M713.353,1175.17c9.329,0,16.891-7.563,16.891-16.892c0-9.329-7.562-16.892-16.891-16.892
			c-9.329,0-16.892,7.563-16.892,16.892C696.461,1167.607,704.023,1175.17,713.353,1175.17z"/>
		
			<ellipse transform="matrix(0.9663 -0.2573 0.2573 0.9663 -271.562 241.1972)" cx="785.87" cy="1158.278" rx="19.104" ry="19.104"/>
		
			<ellipse transform="matrix(0.9409 -0.3387 0.3387 0.9409 -341.5979 359.2335)" cx="858.388" cy="1158.279" rx="21.114" ry="21.115"/>
		
			<ellipse transform="matrix(0.9732 -0.2298 0.2298 0.9732 -241.2156 244.864)" cx="930.906" cy="1158.278" rx="22.924" ry="22.924"/>
		
			<ellipse transform="matrix(0.9515 -0.3075 0.3075 0.9515 -307.5865 364.7292)" cx="1003.424" cy="1158.278" rx="24.332" ry="24.332"/>
		
			<ellipse transform="matrix(0.9482 -0.3176 0.3176 0.9482 -312.1974 401.7536)" cx="1075.941" cy="1158.278" rx="24.533" ry="24.533"/>
		
			<ellipse transform="matrix(0.9926 -0.1215 0.1215 0.9926 -132.2273 148.1252)" cx="1148.459" cy="1158.278" rx="23.125" ry="23.125"/>
		
			<ellipse transform="matrix(0.3877 -0.9218 0.9218 0.3877 -320.0851 1834.6821)" cx="1220.977" cy="1158.279" rx="21.316" ry="21.316"/>
		<path d="M1293.494,1177.583c10.662,0,19.305-8.643,19.305-19.305c0-10.662-8.643-19.305-19.305-19.305
			c-10.661,0-19.304,8.643-19.304,19.305C1274.19,1168.94,1282.833,1177.583,1293.494,1177.583z"/>
		<path d="M1366.012,1175.371c9.44,0,17.092-7.653,17.092-17.093c0-9.44-7.652-17.093-17.092-17.093
			c-9.44,0-17.093,7.653-17.093,17.093C1348.92,1167.718,1356.573,1175.371,1366.012,1175.371z"/>
		<path d="M1438.53,1173.36c8.329,0,15.082-6.753,15.082-15.082c0-8.329-6.753-15.082-15.082-15.082
			c-8.329,0-15.081,6.753-15.081,15.082C1423.449,1166.608,1430.201,1173.36,1438.53,1173.36z"/>
		<path d="M1511.048,1171.35c7.219,0,13.071-5.852,13.071-13.071c0-7.218-5.852-13.071-13.071-13.071
			c-7.218,0-13.071,5.852-13.071,13.071C1497.977,1165.498,1503.829,1171.35,1511.048,1171.35z"/>
		<path d="M1583.566,1169.339c6.108,0,11.06-4.952,11.06-11.06c0-6.108-4.951-11.06-11.06-11.06c-6.108,0-11.06,4.951-11.06,11.06
			C1572.505,1164.387,1577.457,1169.339,1583.566,1169.339z"/>
		<path d="M1656.083,1167.126c4.886,0,8.849-3.961,8.849-8.848c0-4.886-3.962-8.848-8.849-8.848c-4.886,0-8.848,3.961-8.848,8.848
			C1647.235,1163.165,1651.197,1167.126,1656.083,1167.126z"/>
		<path d="M1728.601,1165.115c3.776,0,6.837-3.061,6.837-6.837c0-3.776-3.061-6.837-6.837-6.837c-3.776,0-6.838,3.061-6.838,6.837
			C1721.764,1162.055,1724.825,1165.115,1728.601,1165.115z"/>
		<circle cx="1801.119" cy="1158.279" r="4.826"/>
		<circle cx="1873.636" cy="1158.279" r="2.614"/>
		<path d="M1946.155,1158.882c0.333,0,0.603-0.27,0.603-0.603c0-0.333-0.27-0.603-0.603-0.603c-0.334,0-0.603,0.27-0.603,0.603
			C1945.551,1158.611,1945.821,1158.882,1946.155,1158.882z"/>
		<path d="M169.469,1232.003c0.667,0,1.206-0.541,1.206-1.207c0-0.666-0.54-1.207-1.206-1.207c-0.666,0-1.206,0.541-1.206,1.207
			C168.263,1231.463,168.803,1232.003,169.469,1232.003z"/>
		<path d="M241.987,1234.014c1.777,0,3.217-1.441,3.217-3.218c0-1.777-1.441-3.217-3.217-3.217c-1.777,0-3.217,1.441-3.217,3.217
			C238.77,1232.573,240.21,1234.014,241.987,1234.014z"/>
		<path d="M314.505,1236.025c2.887,0,5.228-2.341,5.228-5.229c0-2.887-2.341-5.228-5.228-5.228c-2.887,0-5.228,2.341-5.228,5.228
			C309.277,1233.684,311.618,1236.025,314.505,1236.025z"/>
		<path d="M387.022,1238.036c3.998,0,7.24-3.242,7.24-7.24s-3.242-7.239-7.24-7.239c-3.998,0-7.239,3.241-7.239,7.239
			S383.024,1238.036,387.022,1238.036z"/>
		<path d="M459.541,1240.248c5.219,0,9.451-4.232,9.451-9.452c0-5.219-4.232-9.451-9.451-9.451c-5.22,0-9.452,4.232-9.452,9.451
			C450.089,1236.016,454.321,1240.248,459.541,1240.248z"/>
		<path d="M532.058,1242.258c6.33,0,11.462-5.132,11.462-11.462c0-6.33-5.132-11.462-11.462-11.462
			c-6.33,0-11.462,5.132-11.462,11.462C520.596,1237.127,525.728,1242.258,532.058,1242.258z"/>
		<path d="M604.576,1244.269c7.442,0,13.473-6.032,13.473-13.473c0-7.441-6.032-13.473-13.473-13.473
			c-7.441,0-13.473,6.032-13.473,13.473C591.103,1238.238,597.135,1244.269,604.576,1244.269z"/>
		<path d="M677.094,1246.079c8.44,0,15.282-6.842,15.282-15.283c0-8.44-6.842-15.282-15.282-15.282
			c-8.44,0-15.283,6.842-15.283,15.282C661.811,1239.237,668.653,1246.079,677.094,1246.079z"/>
		<path d="M749.611,1248.09c9.551,0,17.294-7.743,17.294-17.294c0-9.55-7.743-17.293-17.294-17.293
			c-9.551,0-17.293,7.743-17.293,17.293C732.318,1240.347,740.06,1248.09,749.611,1248.09z"/>
		<path d="M822.129,1249.9c10.55,0,19.103-8.553,19.103-19.104c0-10.55-8.553-19.103-19.103-19.103
			c-10.55,0-19.104,8.553-19.104,19.103C803.026,1241.347,811.579,1249.9,822.129,1249.9z"/>
		<path d="M894.647,1251.508c11.439,0,20.712-9.273,20.712-20.712c0-11.439-9.273-20.712-20.712-20.712
			c-11.439,0-20.712,9.273-20.712,20.712C873.935,1242.236,883.208,1251.508,894.647,1251.508z"/>
		<path d="M967.165,1252.916c12.217,0,22.12-9.903,22.12-22.12c0-12.216-9.903-22.119-22.12-22.119
			c-12.216,0-22.12,9.903-22.12,22.119C945.044,1243.013,954.948,1252.916,967.165,1252.916z"/>
		<path d="M1039.683,1253.318c12.438,0,22.522-10.083,22.522-22.522c0-12.438-10.084-22.521-22.522-22.521
			c-12.439,0-22.522,10.083-22.522,22.521C1017.161,1243.235,1027.244,1253.318,1039.683,1253.318z"/>
		<path d="M1112.2,1252.916c12.217,0,22.12-9.903,22.12-22.12c0-12.216-9.903-22.119-22.12-22.119
			c-12.217,0-22.12,9.903-22.12,22.119C1090.08,1243.013,1099.983,1252.916,1112.2,1252.916z"/>
		<path d="M1184.718,1251.709c11.55,0,20.913-9.363,20.913-20.913c0-11.549-9.363-20.913-20.913-20.913
			c-11.55,0-20.913,9.363-20.913,20.913C1163.805,1242.346,1173.167,1251.709,1184.718,1251.709z"/>
		<path d="M1257.236,1250.101c10.661,0,19.304-8.643,19.304-19.305c0-10.661-8.643-19.304-19.304-19.304
			c-10.662,0-19.305,8.643-19.305,19.304C1237.931,1241.458,1246.574,1250.101,1257.236,1250.101z"/>
		<path d="M1329.753,1248.291c9.662,0,17.495-7.833,17.495-17.495c0-9.662-7.833-17.494-17.495-17.494s-17.495,7.833-17.495,17.494
			C1312.258,1240.458,1320.091,1248.291,1329.753,1248.291z"/>
		<path d="M1402.271,1246.28c8.552,0,15.484-6.933,15.484-15.484c0-8.551-6.932-15.484-15.484-15.484
			c-8.551,0-15.484,6.933-15.484,15.484C1386.787,1239.348,1393.72,1246.28,1402.271,1246.28z"/>
		<path d="M1474.789,1244.47c7.552,0,13.674-6.122,13.674-13.674c0-7.551-6.122-13.674-13.674-13.674
			c-7.552,0-13.674,6.122-13.674,13.674C1461.115,1238.348,1467.237,1244.47,1474.789,1244.47z"/>
		<path d="M1547.307,1242.459c6.441,0,11.664-5.221,11.664-11.663c0-6.441-5.222-11.663-11.664-11.663s-11.663,5.222-11.663,11.663
			C1535.644,1237.238,1540.865,1242.459,1547.307,1242.459z"/>
		<path d="M1619.825,1240.449c5.331,0,9.652-4.322,9.652-9.653c0-5.331-4.321-9.652-9.652-9.652c-5.331,0-9.653,4.322-9.653,9.652
			C1610.172,1236.127,1614.493,1240.449,1619.825,1240.449z"/>
		<path d="M1692.342,1238.438c4.22,0,7.641-3.421,7.641-7.642c0-4.22-3.422-7.641-7.641-7.641c-4.22,0-7.641,3.421-7.641,7.641
			C1684.701,1235.016,1688.122,1238.438,1692.342,1238.438z"/>
		<path d="M1764.86,1236.226c2.999,0,5.429-2.431,5.429-5.43c0-2.999-2.431-5.429-5.429-5.429c-2.999,0-5.429,2.431-5.429,5.429
			C1759.431,1233.795,1761.861,1236.226,1764.86,1236.226z"/>
		<path d="M1837.378,1234.215c1.888,0,3.418-1.531,3.418-3.419c0-1.888-1.531-3.418-3.418-3.418c-1.889,0-3.419,1.531-3.419,3.418
			C1833.959,1232.685,1835.49,1234.215,1837.378,1234.215z"/>
		<path d="M1909.896,1232.204c0.777,0,1.408-0.63,1.408-1.408c0-0.777-0.63-1.408-1.408-1.408s-1.408,0.63-1.408,1.408
			C1908.488,1231.574,1909.119,1232.204,1909.896,1232.204z"/>
		<path d="M133.211,1303.515c0.11,0,0.201-0.09,0.201-0.201c0-0.111-0.091-0.201-0.201-0.201c-0.111,0-0.201,0.09-0.201,0.201
			C133.01,1303.425,133.1,1303.515,133.211,1303.515z"/>
		<path d="M205.729,1305.124c0.999,0,1.81-0.81,1.81-1.81c0-1-0.81-1.81-1.81-1.81c-1,0-1.81,0.81-1.81,1.81
			C203.919,1304.314,204.729,1305.124,205.729,1305.124z"/>
		<path d="M278.246,1307.135c2.11,0,3.821-1.71,3.821-3.821c0-2.11-1.71-3.82-3.821-3.82c-2.109,0-3.821,1.71-3.821,3.82
			C274.425,1305.424,276.136,1307.135,278.246,1307.135z"/>
		<path d="M350.764,1309.146c3.22,0,5.831-2.611,5.831-5.832c0-3.221-2.611-5.831-5.831-5.831c-3.221,0-5.832,2.611-5.832,5.831
			C344.932,1306.535,347.543,1309.146,350.764,1309.146z"/>
		<path d="M423.282,1311.156c4.331,0,7.842-3.511,7.842-7.842c0-4.332-3.511-7.842-7.842-7.842c-4.331,0-7.842,3.51-7.842,7.842
			C415.439,1307.645,418.951,1311.156,423.282,1311.156z"/>
		<path d="M495.799,1313.167c5.442,0,9.854-4.411,9.854-9.853c0-5.442-4.411-9.854-9.854-9.854c-5.442,0-9.853,4.412-9.853,9.854
			C485.946,1308.756,490.357,1313.167,495.799,1313.167z"/>
		<path d="M568.317,1314.977c6.441,0,11.663-5.222,11.663-11.663c0-6.441-5.221-11.663-11.663-11.663s-11.664,5.222-11.664,11.663
			C556.654,1309.755,561.876,1314.977,568.317,1314.977z"/>
		<path d="M640.835,1316.988c7.552,0,13.674-6.122,13.674-13.674c0-7.552-6.122-13.674-13.674-13.674
			c-7.552,0-13.674,6.122-13.674,13.674C627.161,1310.866,633.283,1316.988,640.835,1316.988z"/>
		<path d="M713.353,1318.597c8.44,0,15.282-6.842,15.282-15.282c0-8.44-6.842-15.283-15.282-15.283
			c-8.441,0-15.283,6.843-15.283,15.283C698.07,1311.755,704.912,1318.597,713.353,1318.597z"/>
		
			<ellipse transform="matrix(0.6331 -0.7741 0.7741 0.6331 -720.5319 1086.5833)" cx="785.87" cy="1303.314" rx="17.093" ry="17.093"/>
		<path d="M858.388,1321.815c10.218,0,18.5-8.283,18.5-18.5c0-10.218-8.283-18.5-18.5-18.5c-10.217,0-18.501,8.283-18.501,18.5
			C839.887,1313.531,848.171,1321.815,858.388,1321.815z"/>
		<path d="M930.906,1323.021c10.884,0,19.706-8.823,19.706-19.707c0-10.883-8.823-19.707-19.706-19.707
			c-10.884,0-19.707,8.823-19.707,19.707C911.199,1314.198,920.022,1323.021,930.906,1323.021z"/>
		
			<ellipse transform="matrix(0.2034 -0.9791 0.9791 0.2034 -476.7531 2020.6451)" cx="1003.424" cy="1303.314" rx="20.511" ry="20.511"/>
		<path d="M1075.941,1323.825c11.328,0,20.511-9.183,20.511-20.511c0-11.328-9.183-20.511-20.511-20.511
			c-11.328,0-20.511,9.183-20.511,20.511C1055.431,1314.642,1064.613,1323.825,1075.941,1323.825z"/>
		<path d="M1148.459,1323.222c10.995,0,19.907-8.913,19.907-19.908c0-10.995-8.912-19.908-19.907-19.908
			c-10.995,0-19.908,8.913-19.908,19.908C1128.551,1314.309,1137.464,1323.222,1148.459,1323.222z"/>
		<circle cx="1220.977" cy="1303.314" r="18.701"/>
		<path d="M1293.494,1320.608c9.551,0,17.294-7.743,17.294-17.294c0-9.551-7.743-17.294-17.294-17.294
			c-9.551,0-17.293,7.743-17.293,17.294C1276.201,1312.865,1283.943,1320.608,1293.494,1320.608z"/>
		<path d="M1366.012,1318.798c8.552,0,15.483-6.932,15.483-15.484c0-8.552-6.932-15.484-15.483-15.484s-15.484,6.933-15.484,15.484
			C1350.528,1311.866,1357.461,1318.798,1366.012,1318.798z"/>
		<path d="M1438.53,1316.988c7.552,0,13.674-6.122,13.674-13.674c0-7.552-6.122-13.674-13.674-13.674
			c-7.552,0-13.674,6.122-13.674,13.674C1424.856,1310.866,1430.978,1316.988,1438.53,1316.988z"/>
		<path d="M1511.048,1315.178c6.552,0,11.865-5.311,11.865-11.864c0-6.552-5.312-11.865-11.865-11.865
			c-6.552,0-11.864,5.312-11.864,11.865C1499.183,1309.867,1504.496,1315.178,1511.048,1315.178z"/>
		<path d="M1583.566,1313.167c5.442,0,9.853-4.411,9.853-9.853c0-5.442-4.411-9.854-9.853-9.854c-5.442,0-9.854,4.412-9.854,9.854
			C1573.712,1308.756,1578.124,1313.167,1583.566,1313.167z"/>
		<path d="M1656.083,1311.358c4.442,0,8.044-3.601,8.044-8.043c0-4.442-3.602-8.044-8.044-8.044s-8.043,3.602-8.043,8.044
			C1648.04,1307.756,1651.641,1311.358,1656.083,1311.358z"/>
		<path d="M1728.601,1309.347c3.332,0,6.033-2.701,6.033-6.033c0-3.332-2.701-6.032-6.033-6.032c-3.332,0-6.033,2.7-6.033,6.032
			C1722.568,1306.646,1725.269,1309.347,1728.601,1309.347z"/>
		<path d="M1801.119,1307.336c2.221,0,4.022-1.801,4.022-4.022c0-2.221-1.8-4.022-4.022-4.022c-2.222,0-4.022,1.8-4.022,4.022
			C1797.097,1305.535,1798.897,1307.336,1801.119,1307.336z"/>
		<path d="M1873.636,1305.325c1.111,0,2.011-0.9,2.011-2.011c0-1.111-0.9-2.011-2.011-2.011c-1.11,0-2.011,0.9-2.011,2.011
			C1871.626,1304.425,1872.526,1305.325,1873.636,1305.325z"/>
		<path d="M1946.155,1303.515c0.111,0,0.201-0.09,0.201-0.201c0-0.111-0.091-0.201-0.201-0.201c-0.111,0-0.201,0.09-0.201,0.201
			C1945.954,1303.425,1946.043,1303.515,1946.155,1303.515z"/>
		<path d="M169.469,1376.234c0.223,0,0.402-0.18,0.402-0.402c0-0.222-0.18-0.402-0.402-0.402c-0.222,0-0.402,0.18-0.402,0.402
			C169.067,1376.054,169.247,1376.234,169.469,1376.234z"/>
		<path d="M241.987,1378.044c1.221,0,2.212-0.99,2.212-2.212c0-1.221-0.991-2.212-2.212-2.212c-1.222,0-2.212,0.991-2.212,2.212
			C239.775,1377.054,240.765,1378.044,241.987,1378.044z"/>
		<path d="M314.505,1379.853c2.221,0,4.022-1.8,4.022-4.022c0-2.221-1.8-4.022-4.022-4.022c-2.222,0-4.022,1.801-4.022,4.022
			C310.483,1378.053,312.283,1379.853,314.505,1379.853z"/>
		<path d="M387.022,1381.864c3.332,0,6.033-2.7,6.033-6.033c0-3.332-2.701-6.033-6.033-6.033c-3.331,0-6.033,2.701-6.033,6.033
			C380.99,1379.164,383.691,1381.864,387.022,1381.864z"/>
		<path d="M459.541,1383.876c4.442,0,8.043-3.602,8.043-8.044s-3.601-8.043-8.043-8.043c-4.442,0-8.044,3.601-8.044,8.043
			S455.098,1383.876,459.541,1383.876z"/>
		<path d="M532.058,1385.686c5.442,0,9.853-4.412,9.853-9.854s-4.411-9.853-9.853-9.853c-5.442,0-9.853,4.411-9.853,9.853
			S526.616,1385.686,532.058,1385.686z"/>
		<path d="M604.576,1387.294c6.331,0,11.463-5.132,11.463-11.462c0-6.33-5.132-11.462-11.463-11.462
			c-6.33,0-11.462,5.132-11.462,11.462C593.114,1382.162,598.245,1387.294,604.576,1387.294z"/>
		<path d="M677.094,1389.104c7.33,0,13.271-5.942,13.271-13.272c0-7.33-5.942-13.272-13.271-13.272
			c-7.33,0-13.272,5.942-13.272,13.272C663.821,1383.162,669.763,1389.104,677.094,1389.104z"/>
		<path d="M749.611,1390.713c8.219,0,14.881-6.662,14.881-14.881c0-8.218-6.662-14.88-14.881-14.88
			c-8.218,0-14.88,6.662-14.88,14.88C734.731,1384.05,741.393,1390.713,749.611,1390.713z"/>
		<path d="M822.129,1392.12c8.996,0,16.288-7.293,16.288-16.289s-7.292-16.288-16.288-16.288c-8.996,0-16.288,7.292-16.288,16.288
			S813.134,1392.12,822.129,1392.12z"/>
		
			<ellipse transform="matrix(0.9979 -0.0651 0.0651 0.9979 -87.6096 61.1157)" cx="894.647" cy="1375.832" rx="17.294" ry="17.294"/>
		<path d="M967.165,1393.93c9.995,0,18.098-8.103,18.098-18.098s-8.103-18.098-18.098-18.098c-9.995,0-18.097,8.103-18.097,18.098
			S957.169,1393.93,967.165,1393.93z"/>
		<path d="M1039.683,1394.332c10.217,0,18.5-8.283,18.5-18.5c0-10.217-8.283-18.5-18.5-18.5c-10.218,0-18.5,8.284-18.5,18.5
			C1021.182,1386.049,1029.465,1394.332,1039.683,1394.332z"/>
		<ellipse transform="matrix(0.968 -0.2511 0.2511 0.968 -309.8511 323.3716)" cx="1112.2" cy="1375.832" rx="18.299" ry="18.299"/>
		<path d="M1184.718,1393.327c9.662,0,17.495-7.833,17.495-17.495s-7.833-17.495-17.495-17.495c-9.662,0-17.494,7.833-17.494,17.495
			S1175.056,1393.327,1184.718,1393.327z"/>
		<path d="M1257.236,1392.321c9.107,0,16.489-7.383,16.489-16.49s-7.382-16.489-16.489-16.489c-9.107,0-16.49,7.382-16.49,16.489
			S1248.129,1392.321,1257.236,1392.321z"/>
		<path d="M1329.753,1390.914c8.329,0,15.082-6.752,15.082-15.082c0-8.329-6.753-15.081-15.082-15.081
			c-8.329,0-15.082,6.752-15.082,15.081C1314.671,1384.161,1321.424,1390.914,1329.753,1390.914z"/>
		<path d="M1402.271,1389.305c7.441,0,13.473-6.033,13.473-13.473s-6.032-13.473-13.473-13.473c-7.441,0-13.473,6.032-13.473,13.473
			S1394.83,1389.305,1402.271,1389.305z"/>
		<path d="M1474.789,1387.495c6.441,0,11.663-5.222,11.663-11.664s-5.222-11.663-11.663-11.663c-6.441,0-11.663,5.222-11.663,11.663
			S1468.348,1387.495,1474.789,1387.495z"/>
		<path d="M1547.307,1385.887c5.553,0,10.055-4.502,10.055-10.055s-4.502-10.054-10.055-10.054s-10.054,4.501-10.054,10.054
			S1541.754,1385.887,1547.307,1385.887z"/>
		<path d="M1619.825,1383.876c4.442,0,8.043-3.602,8.043-8.044s-3.601-8.043-8.043-8.043c-4.443,0-8.044,3.601-8.044,8.043
			S1615.382,1383.876,1619.825,1383.876z"/>
		<path d="M1692.342,1382.065c3.443,0,6.234-2.791,6.234-6.234s-2.791-6.234-6.234-6.234c-3.443,0-6.234,2.791-6.234,6.234
			S1688.9,1382.065,1692.342,1382.065z"/>
		<path d="M1764.86,1380.054c2.333,0,4.223-1.89,4.223-4.223c0-2.332-1.89-4.223-4.223-4.223c-2.332,0-4.223,1.891-4.223,4.223
			C1760.637,1378.164,1762.528,1380.054,1764.86,1380.054z"/>
		<path d="M1837.378,1378.245c1.333,0,2.413-1.08,2.413-2.413c0-1.332-1.081-2.413-2.413-2.413c-1.333,0-2.413,1.081-2.413,2.413
			C1834.965,1377.165,1836.045,1378.245,1837.378,1378.245z"/>
		<path d="M1909.896,1376.234c0.222,0,0.402-0.18,0.402-0.402c0-0.222-0.18-0.402-0.402-0.402c-0.223,0-0.402,0.18-0.402,0.402
			C1909.493,1376.054,1909.673,1376.234,1909.896,1376.234z"/>
		<path d="M205.729,1448.953c0.333,0,0.603-0.27,0.603-0.603c0-0.334-0.27-0.603-0.603-0.603c-0.333,0-0.603,0.27-0.603,0.603
			C205.125,1448.683,205.395,1448.953,205.729,1448.953z"/>
		<path d="M278.246,1450.562c1.222,0,2.212-0.991,2.212-2.212c0-1.222-0.99-2.213-2.212-2.213c-1.221,0-2.212,0.991-2.212,2.213
			C276.034,1449.571,277.025,1450.562,278.246,1450.562z"/>
		<path d="M350.764,1452.573c2.332,0,4.223-1.891,4.223-4.223c0-2.333-1.891-4.224-4.223-4.224c-2.333,0-4.223,1.891-4.223,4.224
			C346.541,1450.682,348.431,1452.573,350.764,1452.573z"/>
		<path d="M423.282,1454.382c3.331,0,6.033-2.701,6.033-6.032c0-3.332-2.701-6.033-6.033-6.033c-3.332,0-6.033,2.701-6.033,6.033
			C417.249,1451.681,419.95,1454.382,423.282,1454.382z"/>
		<path d="M495.799,1456.192c4.332,0,7.843-3.511,7.843-7.842c0-4.332-3.511-7.843-7.843-7.843c-4.331,0-7.842,3.511-7.842,7.843
			C487.957,1452.681,491.468,1456.192,495.799,1456.192z"/>
		<path d="M568.317,1457.801c5.219,0,9.451-4.232,9.451-9.451c0-5.22-4.232-9.452-9.451-9.452c-5.22,0-9.452,4.232-9.452,9.452
			C558.865,1453.569,563.097,1457.801,568.317,1457.801z"/>
		<path d="M640.835,1459.41c6.108,0,11.06-4.952,11.06-11.06c0-6.108-4.952-11.06-11.06-11.06c-6.109,0-11.06,4.952-11.06,11.06
			C629.775,1454.458,634.726,1459.41,640.835,1459.41z"/>
		<path d="M713.353,1461.018c6.997,0,12.668-5.672,12.668-12.668c0-6.997-5.672-12.669-12.668-12.669
			c-6.997,0-12.669,5.672-12.669,12.669C700.684,1455.347,706.355,1461.018,713.353,1461.018z"/>
		<path d="M785.87,1462.225c7.663,0,13.875-6.212,13.875-13.875c0-7.663-6.211-13.876-13.875-13.876
			c-7.663,0-13.875,6.212-13.875,13.876C771.995,1456.012,778.207,1462.225,785.87,1462.225z"/>
		<path d="M858.388,1463.431c8.33,0,15.082-6.752,15.082-15.081c0-8.33-6.752-15.082-15.082-15.082
			c-8.329,0-15.081,6.752-15.081,15.082C843.307,1456.679,850.059,1463.431,858.388,1463.431z"/>
		<path d="M930.906,1464.235c8.773,0,15.886-7.112,15.886-15.885c0-8.774-7.112-15.886-15.886-15.886
			c-8.774,0-15.886,7.112-15.886,15.886C915.02,1457.123,922.132,1464.235,930.906,1464.235z"/>
		<path d="M1003.424,1464.638c8.996,0,16.289-7.292,16.289-16.288c0-8.996-7.293-16.289-16.289-16.289
			c-8.996,0-16.289,7.293-16.289,16.289C987.135,1457.346,994.428,1464.638,1003.424,1464.638z"/>
		<path d="M1075.941,1464.638c8.996,0,16.288-7.292,16.288-16.288c0-8.996-7.293-16.289-16.288-16.289
			c-8.996,0-16.288,7.293-16.288,16.289C1059.653,1457.346,1066.945,1464.638,1075.941,1464.638z"/>
		<path d="M1148.459,1464.235c8.773,0,15.885-7.112,15.885-15.885c0-8.774-7.112-15.886-15.885-15.886
			c-8.774,0-15.886,7.112-15.886,15.886C1132.573,1457.123,1139.685,1464.235,1148.459,1464.235z"/>
		<path d="M1220.977,1463.431c8.329,0,15.082-6.752,15.082-15.081c0-8.33-6.753-15.082-15.082-15.082
			c-8.329,0-15.082,6.752-15.082,15.082C1205.895,1456.679,1212.648,1463.431,1220.977,1463.431z"/>
		<path d="M1293.494,1462.426c7.774,0,14.076-6.302,14.076-14.076c0-7.775-6.302-14.077-14.076-14.077
			c-7.774,0-14.076,6.302-14.076,14.077C1279.419,1456.124,1285.72,1462.426,1293.494,1462.426z"/>
		<path d="M1366.012,1461.219c7.108,0,12.869-5.762,12.869-12.869c0-7.108-5.762-12.87-12.869-12.87
			c-7.108,0-12.87,5.762-12.87,12.87C1353.142,1455.457,1358.905,1461.219,1366.012,1461.219z"/>
		<path d="M1438.53,1459.61c6.22,0,11.261-5.042,11.261-11.26c0-6.22-5.042-11.261-11.261-11.261
			c-6.219,0-11.261,5.042-11.261,11.261C1427.269,1454.569,1432.311,1459.61,1438.53,1459.61z"/>
		<path d="M1511.048,1458.002c5.331,0,9.652-4.322,9.652-9.652c0-5.331-4.321-9.653-9.652-9.653c-5.331,0-9.652,4.322-9.652,9.653
			C1501.395,1453.68,1505.717,1458.002,1511.048,1458.002z"/>
		<path d="M1583.566,1456.393c4.442,0,8.043-3.601,8.043-8.043c0-4.443-3.601-8.044-8.043-8.044c-4.442,0-8.043,3.601-8.043,8.044
			C1575.522,1452.792,1579.123,1456.393,1583.566,1456.393z"/>
		<path d="M1656.083,1454.583c3.443,0,6.234-2.791,6.234-6.233c0-3.444-2.791-6.234-6.234-6.234c-3.443,0-6.234,2.791-6.234,6.234
			C1649.849,1451.793,1652.64,1454.583,1656.083,1454.583z"/>
		<path d="M1728.601,1452.774c2.443,0,4.424-1.981,4.424-4.424c0-2.444-1.981-4.425-4.424-4.425c-2.444,0-4.425,1.981-4.425,4.425
			C1724.177,1450.793,1726.158,1452.774,1728.601,1452.774z"/>
		<path d="M1801.119,1450.763c1.332,0,2.413-1.081,2.413-2.413c0-1.333-1.081-2.414-2.413-2.414c-1.333,0-2.413,1.081-2.413,2.414
			C1798.706,1449.682,1799.786,1450.763,1801.119,1450.763z"/>
		<path d="M1873.636,1448.953c0.334,0,0.603-0.27,0.603-0.603c0-0.334-0.27-0.603-0.603-0.603c-0.333,0-0.603,0.27-0.603,0.603
			C1873.033,1448.683,1873.303,1448.953,1873.636,1448.953z"/>
		<path d="M241.987,1521.471c0.333,0,0.603-0.27,0.603-0.603c0-0.333-0.27-0.603-0.603-0.603c-0.334,0-0.603,0.27-0.603,0.603
			C241.384,1521.2,241.654,1521.471,241.987,1521.471z"/>
		<path d="M314.505,1523.079c1.222,0,2.212-0.991,2.212-2.212c0-1.222-0.99-2.212-2.212-2.212c-1.222,0-2.212,0.99-2.212,2.212
			C312.293,1522.089,313.283,1523.079,314.505,1523.079z"/>
		<path d="M387.022,1524.889c2.221,0,4.022-1.801,4.022-4.022c0-2.221-1.801-4.022-4.022-4.022c-2.221,0-4.022,1.8-4.022,4.022
			C383.001,1523.088,384.802,1524.889,387.022,1524.889z"/>
		<path d="M459.541,1526.699c3.22,0,5.831-2.611,5.831-5.832c0-3.221-2.611-5.831-5.831-5.831c-3.221,0-5.831,2.61-5.831,5.831
			C453.709,1524.088,456.32,1526.699,459.541,1526.699z"/>
		<path d="M532.058,1528.307c4.109,0,7.44-3.331,7.44-7.44c0-4.109-3.331-7.44-7.44-7.44c-4.109,0-7.44,3.331-7.44,7.44
			C524.618,1524.977,527.949,1528.307,532.058,1528.307z"/>
		<path d="M604.576,1529.715c4.887,0,8.848-3.961,8.848-8.848c0-4.886-3.961-8.848-8.848-8.848c-4.886,0-8.848,3.961-8.848,8.848
			C595.728,1525.754,599.689,1529.715,604.576,1529.715z"/>
		<path d="M677.094,1531.324c5.775,0,10.456-4.682,10.456-10.456c0-5.775-4.682-10.457-10.456-10.457
			c-5.776,0-10.457,4.682-10.457,10.457C666.637,1526.642,671.318,1531.324,677.094,1531.324z"/>
		<path d="M749.611,1532.53c6.441,0,11.664-5.222,11.664-11.663c0-6.441-5.222-11.663-11.664-11.663
			c-6.441,0-11.663,5.222-11.663,11.663C737.948,1527.309,743.17,1532.53,749.611,1532.53z"/>
		<path d="M822.129,1533.536c6.997,0,12.668-5.672,12.668-12.668c0-6.997-5.672-12.669-12.668-12.669s-12.669,5.672-12.669,12.669
			C809.46,1527.864,815.133,1533.536,822.129,1533.536z"/>
		<path d="M894.647,1534.34c7.441,0,13.473-6.032,13.473-13.473c0-7.441-6.032-13.473-13.473-13.473
			c-7.441,0-13.473,6.032-13.473,13.473C881.174,1528.308,887.206,1534.34,894.647,1534.34z"/>
		<path d="M967.165,1534.943c7.774,0,14.076-6.302,14.076-14.076c0-7.774-6.302-14.077-14.076-14.077
			c-7.774,0-14.076,6.302-14.076,14.077C953.089,1528.641,959.391,1534.943,967.165,1534.943z"/>
		<path d="M1039.683,1535.144c7.885,0,14.277-6.392,14.277-14.277c0-7.885-6.392-14.278-14.277-14.278
			c-7.886,0-14.278,6.393-14.278,14.278C1025.405,1528.752,1031.797,1535.144,1039.683,1535.144z"/>
		<path d="M1112.2,1534.943c7.774,0,14.077-6.302,14.077-14.076c0-7.774-6.303-14.077-14.077-14.077
			c-7.774,0-14.077,6.302-14.077,14.077C1098.124,1528.641,1104.426,1534.943,1112.2,1534.943z"/>
		<path d="M1184.718,1534.541c7.552,0,13.674-6.122,13.674-13.674c0-7.552-6.122-13.674-13.674-13.674
			c-7.552,0-13.674,6.122-13.674,13.674C1171.044,1528.419,1177.166,1534.541,1184.718,1534.541z"/>
		<path d="M1257.236,1533.737c7.108,0,12.869-5.761,12.869-12.869s-5.761-12.87-12.869-12.87c-7.108,0-12.87,5.762-12.87,12.87
			S1250.128,1533.737,1257.236,1533.737z"/>
		<path d="M1329.753,1532.53c6.441,0,11.664-5.222,11.664-11.663c0-6.441-5.222-11.663-11.664-11.663s-11.663,5.222-11.663,11.663
			C1318.09,1527.309,1323.312,1532.53,1329.753,1532.53z"/>
		<path d="M1402.271,1531.324c5.775,0,10.457-4.682,10.457-10.456c0-5.775-4.682-10.457-10.457-10.457
			c-5.775,0-10.457,4.682-10.457,10.457C1391.814,1526.642,1396.496,1531.324,1402.271,1531.324z"/>
		<path d="M1474.789,1529.916c4.998,0,9.049-4.051,9.049-9.049c0-4.998-4.051-9.049-9.049-9.049c-4.998,0-9.049,4.051-9.049,9.049
			C1465.74,1525.865,1469.791,1529.916,1474.789,1529.916z"/>
		<circle cx="1547.307" cy="1520.867" r="7.641"/>
		<path d="M1619.825,1526.9c3.332,0,6.032-2.701,6.032-6.032c0-3.332-2.701-6.032-6.032-6.032c-3.332,0-6.033,2.701-6.033,6.032
			C1613.792,1524.199,1616.493,1526.9,1619.825,1526.9z"/>
		<path d="M1692.342,1525.09c2.332,0,4.223-1.891,4.223-4.223c0-2.332-1.891-4.223-4.223-4.223c-2.332,0-4.223,1.891-4.223,4.223
			C1688.12,1523.199,1690.01,1525.09,1692.342,1525.09z"/>
		<path d="M1764.86,1523.28c1.333,0,2.413-1.081,2.413-2.413c0-1.332-1.08-2.413-2.413-2.413c-1.333,0-2.413,1.081-2.413,2.413
			C1762.447,1522.2,1763.527,1523.28,1764.86,1523.28z"/>
		<path d="M1837.378,1521.471c0.333,0,0.603-0.27,0.603-0.603c0-0.333-0.27-0.603-0.603-0.603c-0.334,0-0.603,0.27-0.603,0.603
			C1836.775,1521.2,1837.044,1521.471,1837.378,1521.471z"/>
		<path d="M278.246,1593.787c0.222,0,0.402-0.18,0.402-0.402c0-0.222-0.18-0.402-0.402-0.402c-0.222,0-0.402,0.18-0.402,0.402
			C277.844,1593.607,278.024,1593.787,278.246,1593.787z"/>
		<path d="M350.764,1595.396c1.11,0,2.011-0.9,2.011-2.011c0-1.111-0.901-2.011-2.011-2.011c-1.111,0-2.011,0.9-2.011,2.011
			C348.753,1594.496,349.653,1595.396,350.764,1595.396z"/>
		<path d="M423.282,1597.004c1.999,0,3.619-1.62,3.619-3.62c0-1.999-1.62-3.62-3.619-3.62c-1.999,0-3.62,1.621-3.62,3.62
			C419.662,1595.384,421.283,1597.004,423.282,1597.004z"/>
		<path d="M495.799,1598.613c2.888,0,5.229-2.341,5.229-5.228c0-2.887-2.341-5.228-5.229-5.228c-2.887,0-5.228,2.341-5.228,5.228
			C490.571,1596.272,492.912,1598.613,495.799,1598.613z"/>
		<path d="M568.317,1600.021c3.664,0,6.636-2.971,6.636-6.637c0-3.664-2.971-6.636-6.636-6.636c-3.665,0-6.636,2.971-6.636,6.636
			C561.681,1597.05,564.652,1600.021,568.317,1600.021z"/>
		<path d="M640.835,1601.429c4.442,0,8.043-3.602,8.043-8.044c0-4.442-3.601-8.043-8.043-8.043c-4.442,0-8.043,3.601-8.043,8.043
			C632.792,1597.827,636.392,1601.429,640.835,1601.429z"/>
		<path d="M713.353,1602.635c5.108,0,9.25-4.142,9.25-9.251c0-5.109-4.142-9.25-9.25-9.25c-5.109,0-9.251,4.141-9.251,9.25
			C704.102,1598.494,708.244,1602.635,713.353,1602.635z"/>
		<path d="M785.87,1603.842c5.775,0,10.456-4.682,10.456-10.457c0-5.775-4.682-10.456-10.456-10.456
			c-5.775,0-10.457,4.682-10.457,10.456C775.413,1599.16,780.095,1603.842,785.87,1603.842z"/>
		<path d="M858.388,1604.646c6.219,0,11.261-5.042,11.261-11.261c0-6.219-5.042-11.26-11.261-11.26
			c-6.219,0-11.261,5.042-11.261,11.26C847.127,1599.604,852.169,1604.646,858.388,1604.646z"/>
		<path d="M930.906,1605.25c6.553,0,11.864-5.312,11.864-11.865s-5.311-11.864-11.864-11.864c-6.552,0-11.865,5.311-11.865,11.864
			S924.354,1605.25,930.906,1605.25z"/>
		<path d="M1003.424,1605.451c6.664,0,12.065-5.402,12.065-12.066c0-6.663-5.401-12.065-12.065-12.065
			c-6.664,0-12.066,5.402-12.066,12.065C991.358,1600.049,996.76,1605.451,1003.424,1605.451z"/>
		<path d="M1075.941,1605.451c6.664,0,12.066-5.402,12.066-12.066c0-6.663-5.402-12.065-12.066-12.065
			c-6.663,0-12.065,5.402-12.065,12.065C1063.876,1600.049,1069.278,1605.451,1075.941,1605.451z"/>
		<path d="M1148.459,1605.25c6.553,0,11.864-5.312,11.864-11.865s-5.311-11.864-11.864-11.864s-11.865,5.311-11.865,11.864
			S1141.907,1605.25,1148.459,1605.25z"/>
		<path d="M1220.977,1604.646c6.22,0,11.261-5.042,11.261-11.261c0-6.219-5.041-11.26-11.261-11.26s-11.261,5.042-11.261,11.26
			C1209.716,1599.604,1214.757,1604.646,1220.977,1604.646z"/>
		<path d="M1293.494,1603.842c5.775,0,10.457-4.682,10.457-10.457c0-5.775-4.682-10.456-10.457-10.456
			c-5.775,0-10.457,4.682-10.457,10.456C1283.038,1599.16,1287.72,1603.842,1293.494,1603.842z"/>
		<path d="M1366.012,1602.837c5.22,0,9.451-4.232,9.451-9.452c0-5.219-4.231-9.451-9.451-9.451c-5.22,0-9.452,4.232-9.452,9.451
			C1356.561,1598.605,1360.792,1602.837,1366.012,1602.837z"/>
		<path d="M1438.53,1601.63c4.553,0,8.245-3.692,8.245-8.245c0-4.553-3.691-8.244-8.245-8.244s-8.244,3.691-8.244,8.244
			C1430.286,1597.938,1433.976,1601.63,1438.53,1601.63z"/>
		<path d="M1511.048,1600.222c3.776,0,6.837-3.061,6.837-6.838c0-3.776-3.061-6.837-6.837-6.837c-3.776,0-6.837,3.061-6.837,6.837
			C1504.211,1597.161,1507.272,1600.222,1511.048,1600.222z"/>
		<path d="M1583.566,1598.814c2.999,0,5.429-2.431,5.429-5.429c0-2.999-2.431-5.429-5.429-5.429c-2.999,0-5.429,2.431-5.429,5.429
			C1578.136,1596.383,1580.567,1598.814,1583.566,1598.814z"/>
		<path d="M1656.083,1597.205c2.11,0,3.821-1.71,3.821-3.821c0-2.11-1.71-3.821-3.821-3.821c-2.11,0-3.82,1.71-3.82,3.821
			C1652.263,1595.495,1653.973,1597.205,1656.083,1597.205z"/>
		<path d="M1728.601,1595.597c1.221,0,2.212-0.99,2.212-2.212c0-1.221-0.991-2.212-2.212-2.212c-1.222,0-2.213,0.991-2.213,2.212
			C1726.389,1594.607,1727.38,1595.597,1728.601,1595.597z"/>
		<path d="M1801.119,1593.988c0.333,0,0.603-0.27,0.603-0.603c0-0.333-0.27-0.603-0.603-0.603s-0.603,0.27-0.603,0.603
			C1800.516,1593.719,1800.786,1593.988,1801.119,1593.988z"/>
		<path d="M314.505,1666.104c0.111,0,0.201-0.091,0.201-0.201c0-0.111-0.09-0.201-0.201-0.201c-0.111,0-0.201,0.09-0.201,0.201
			C314.304,1666.014,314.394,1666.104,314.505,1666.104z"/>
		<path d="M387.022,1667.311c0.778,0,1.408-0.631,1.408-1.408c0-0.778-0.63-1.408-1.408-1.408c-0.777,0-1.408,0.63-1.408,1.408
			C385.615,1666.68,386.245,1667.311,387.022,1667.311z"/>
		<path d="M459.541,1668.919c1.665,0,3.016-1.351,3.016-3.016c0-1.666-1.351-3.016-3.016-3.016c-1.666,0-3.016,1.35-3.016,3.016
			C456.524,1667.568,457.874,1668.919,459.541,1668.919z"/>
		<path d="M532.058,1670.327c2.443,0,4.424-1.981,4.424-4.424c0-2.443-1.981-4.424-4.424-4.424c-2.443,0-4.424,1.981-4.424,4.424
			C527.634,1668.346,529.615,1670.327,532.058,1670.327z"/>
		<path d="M604.576,1671.734c3.221,0,5.832-2.611,5.832-5.832c0-3.221-2.611-5.832-5.832-5.832c-3.22,0-5.831,2.611-5.831,5.832
			C598.744,1669.123,601.355,1671.734,604.576,1671.734z"/>
		<path d="M677.094,1672.941c3.887,0,7.038-3.151,7.038-7.038c0-3.888-3.151-7.039-7.038-7.039c-3.887,0-7.038,3.151-7.038,7.039
			C670.056,1669.79,673.207,1672.941,677.094,1672.941z"/>
		<path d="M749.611,1673.946c4.442,0,8.044-3.601,8.044-8.043c0-4.442-3.602-8.044-8.044-8.044c-4.442,0-8.043,3.602-8.043,8.044
			C741.568,1670.345,745.169,1673.946,749.611,1673.946z"/>
		<path d="M822.129,1674.751c4.886,0,8.848-3.961,8.848-8.848c0-4.887-3.961-8.848-8.848-8.848c-4.887,0-8.848,3.961-8.848,8.848
			C813.281,1670.789,817.242,1674.751,822.129,1674.751z"/>
		<path d="M894.647,1675.354c5.219,0,9.451-4.232,9.451-9.451c0-5.22-4.232-9.452-9.451-9.452c-5.22,0-9.451,4.232-9.451,9.452
			C885.196,1671.122,889.427,1675.354,894.647,1675.354z"/>
		<path d="M967.165,1675.756c5.442,0,9.854-4.411,9.854-9.853c0-5.442-4.412-9.854-9.854-9.854c-5.442,0-9.853,4.411-9.853,9.854
			C957.311,1671.345,961.723,1675.756,967.165,1675.756z"/>
		<path d="M1039.683,1675.957c5.553,0,10.054-4.501,10.054-10.054c0-5.553-4.501-10.055-10.054-10.055s-10.055,4.502-10.055,10.055
			C1029.628,1671.456,1034.13,1675.957,1039.683,1675.957z"/>
		<path d="M1112.2,1675.957c5.553,0,10.054-4.501,10.054-10.054c0-5.553-4.501-10.055-10.054-10.055s-10.054,4.502-10.054,10.055
			C1102.146,1671.456,1106.647,1675.957,1112.2,1675.957z"/>
		<path d="M1184.718,1675.555c5.331,0,9.653-4.321,9.653-9.652c0-5.331-4.321-9.653-9.653-9.653c-5.331,0-9.652,4.321-9.652,9.653
			C1175.066,1671.234,1179.387,1675.555,1184.718,1675.555z"/>
		<path d="M1257.236,1674.952c4.998,0,9.049-4.051,9.049-9.049c0-4.998-4.051-9.049-9.049-9.049s-9.049,4.052-9.049,9.049
			C1248.186,1670.901,1252.238,1674.952,1257.236,1674.952z"/>
		<path d="M1329.753,1673.946c4.442,0,8.043-3.601,8.043-8.043c0-4.442-3.601-8.044-8.043-8.044c-4.442,0-8.043,3.602-8.043,8.044
			C1321.71,1670.345,1325.311,1673.946,1329.753,1673.946z"/>
		<path d="M1402.271,1672.941c3.887,0,7.038-3.151,7.038-7.038c0-3.888-3.151-7.039-7.038-7.039c-3.887,0-7.038,3.151-7.038,7.039
			C1395.233,1669.79,1398.384,1672.941,1402.271,1672.941z"/>
		<path d="M1474.789,1671.936c3.332,0,6.033-2.701,6.033-6.033c0-3.332-2.701-6.033-6.033-6.033c-3.332,0-6.032,2.701-6.032,6.033
			C1468.756,1669.234,1471.457,1671.936,1474.789,1671.936z"/>
		<path d="M1547.307,1670.528c2.554,0,4.625-2.07,4.625-4.625c0-2.554-2.071-4.625-4.625-4.625c-2.554,0-4.625,2.071-4.625,4.625
			C1542.682,1668.458,1544.752,1670.528,1547.307,1670.528z"/>
		<path d="M1619.825,1669.12c1.777,0,3.217-1.441,3.217-3.217c0-1.777-1.441-3.217-3.217-3.217c-1.777,0-3.218,1.44-3.218,3.217
			C1616.607,1667.68,1618.047,1669.12,1619.825,1669.12z"/>
		<path d="M1692.342,1667.512c0.889,0,1.609-0.72,1.609-1.609c0-0.889-0.72-1.609-1.609-1.609c-0.888,0-1.609,0.72-1.609,1.609
			C1690.734,1666.791,1691.454,1667.512,1692.342,1667.512z"/>
		<path d="M1764.86,1666.104c0.111,0,0.201-0.091,0.201-0.201c0-0.111-0.09-0.201-0.201-0.201s-0.201,0.09-0.201,0.201
			C1764.659,1666.014,1764.749,1666.104,1764.86,1666.104z"/>
		<path d="M423.282,1739.225c0.444,0,0.804-0.36,0.804-0.804c0-0.444-0.36-0.804-0.804-0.804c-0.444,0-0.804,0.36-0.804,0.804
			C422.477,1738.865,422.837,1739.225,423.282,1739.225z"/>
		<path d="M495.799,1740.632c1.222,0,2.213-0.99,2.213-2.212c0-1.222-0.991-2.212-2.213-2.212c-1.221,0-2.212,0.99-2.212,2.212
			C493.587,1739.642,494.578,1740.632,495.799,1740.632z"/>
		<circle cx="568.317" cy="1738.421" r="3.418"/>
		<path d="M640.835,1743.045c2.554,0,4.625-2.071,4.625-4.625c0-2.554-2.07-4.625-4.625-4.625c-2.555,0-4.625,2.07-4.625,4.625
			C636.21,1740.975,638.28,1743.045,640.835,1743.045z"/>
		<path d="M713.353,1744.051c3.109,0,5.63-2.521,5.63-5.63c0-3.11-2.521-5.63-5.63-5.63c-3.11,0-5.631,2.521-5.631,5.63
			C707.722,1741.53,710.243,1744.051,713.353,1744.051z"/>
		<path d="M785.87,1745.056c3.665,0,6.636-2.971,6.636-6.636c0-3.665-2.971-6.636-6.636-6.636c-3.665,0-6.636,2.97-6.636,6.636
			C779.235,1742.086,782.205,1745.056,785.87,1745.056z"/>
		<path d="M858.388,1745.66c3.998,0,7.24-3.241,7.24-7.239c0-3.998-3.242-7.239-7.24-7.239c-3.998,0-7.239,3.241-7.239,7.239
			C851.149,1742.419,854.39,1745.66,858.388,1745.66z"/>
		<path d="M930.906,1746.062c4.22,0,7.641-3.421,7.641-7.641s-3.421-7.641-7.641-7.641c-4.221,0-7.642,3.421-7.642,7.641
			S926.685,1746.062,930.906,1746.062z"/>
		
			<ellipse transform="matrix(0.2017 -0.9795 0.9795 0.2017 -901.6373 2370.645)" cx="1003.424" cy="1738.421" rx="7.842" ry="7.842"/>
		<path d="M1075.941,1746.464c4.442,0,8.044-3.601,8.044-8.043s-3.602-8.043-8.044-8.043c-4.442,0-8.043,3.601-8.043,8.043
			S1071.499,1746.464,1075.941,1746.464z"/>
		<path d="M1148.459,1746.263c4.331,0,7.842-3.511,7.842-7.842c0-4.331-3.511-7.842-7.842-7.842c-4.332,0-7.843,3.511-7.843,7.842
			C1140.616,1742.751,1144.127,1746.263,1148.459,1746.263z"/>
		<circle cx="1220.977" cy="1738.421" r="7.239"/>
		<path d="M1293.494,1745.056c3.665,0,6.636-2.971,6.636-6.636c0-3.665-2.971-6.636-6.636-6.636c-3.665,0-6.636,2.97-6.636,6.636
			C1286.859,1742.086,1289.83,1745.056,1293.494,1745.056z"/>
		<path d="M1366.012,1744.252c3.22,0,5.831-2.61,5.831-5.831c0-3.221-2.611-5.831-5.831-5.831c-3.221,0-5.831,2.61-5.831,5.831
			C1360.181,1741.641,1362.791,1744.252,1366.012,1744.252z"/>
		<circle cx="1438.53" cy="1738.421" r="4.826"/>
		<path d="M1511.048,1742.04c1.999,0,3.62-1.62,3.62-3.62s-1.621-3.62-3.62-3.62c-1.999,0-3.62,1.62-3.62,3.62
			S1509.048,1742.04,1511.048,1742.04z"/>
		<path d="M1583.566,1740.833c1.333,0,2.413-1.08,2.413-2.413c0-1.332-1.081-2.413-2.413-2.413c-1.332,0-2.413,1.081-2.413,2.413
			C1581.153,1739.753,1582.233,1740.833,1583.566,1740.833z"/>
		<circle cx="1656.083" cy="1738.421" r="1.005"/>
		<path d="M459.541,1811.139c0.111,0,0.201-0.09,0.201-0.201c0-0.11-0.09-0.201-0.201-0.201s-0.201,0.091-0.201,0.201
			C459.339,1811.049,459.429,1811.139,459.541,1811.139z"/>
		<path d="M532.058,1812.145c0.667,0,1.206-0.54,1.206-1.207c0-0.666-0.54-1.206-1.206-1.206c-0.667,0-1.207,0.541-1.207,1.206
			C530.852,1811.605,531.391,1812.145,532.058,1812.145z"/>
		<path d="M604.576,1813.351c1.333,0,2.414-1.08,2.414-2.413c0-1.333-1.081-2.413-2.414-2.413c-1.332,0-2.413,1.08-2.413,2.413
			C602.163,1812.271,603.243,1813.351,604.576,1813.351z"/>
		<circle cx="677.094" cy="1810.938" r="3.418"/>
		<path d="M749.611,1815.161c2.333,0,4.223-1.891,4.223-4.224c0-2.332-1.89-4.223-4.223-4.223c-2.332,0-4.223,1.891-4.223,4.223
			C745.388,1813.271,747.279,1815.161,749.611,1815.161z"/>
		<path d="M822.129,1815.966c2.776,0,5.027-2.251,5.027-5.028c0-2.776-2.251-5.027-5.027-5.027c-2.777,0-5.028,2.251-5.028,5.027
			C817.102,1813.715,819.353,1815.966,822.129,1815.966z"/>
		<path d="M894.647,1816.368c2.999,0,5.429-2.431,5.429-5.43c0-2.999-2.431-5.429-5.429-5.429c-2.999,0-5.429,2.431-5.429,5.429
			C889.218,1813.937,891.648,1816.368,894.647,1816.368z"/>
		<path d="M967.165,1816.77c3.221,0,5.832-2.611,5.832-5.832c0-3.22-2.611-5.831-5.832-5.831c-3.22,0-5.832,2.611-5.832,5.831
			C961.333,1814.159,963.944,1816.77,967.165,1816.77z"/>
		<path d="M1039.683,1816.77c3.22,0,5.831-2.611,5.831-5.832c0-3.22-2.611-5.831-5.831-5.831c-3.221,0-5.832,2.611-5.832,5.831
			C1033.85,1814.159,1036.462,1816.77,1039.683,1816.77z"/>
		<path d="M1112.2,1816.77c3.221,0,5.831-2.611,5.831-5.832c0-3.22-2.61-5.831-5.831-5.831s-5.831,2.611-5.831,5.831
			C1106.369,1814.159,1108.979,1816.77,1112.2,1816.77z"/>
		<path d="M1184.718,1816.368c2.998,0,5.43-2.431,5.43-5.43c0-2.999-2.431-5.429-5.43-5.429c-2.999,0-5.429,2.431-5.429,5.429
			C1179.288,1813.937,1181.719,1816.368,1184.718,1816.368z"/>
		<path d="M1257.236,1815.966c2.776,0,5.027-2.251,5.027-5.028c0-2.776-2.251-5.027-5.027-5.027c-2.777,0-5.027,2.251-5.027,5.027
			C1252.209,1813.715,1254.459,1815.966,1257.236,1815.966z"/>
		<path d="M1329.753,1815.161c2.332,0,4.223-1.891,4.223-4.224c0-2.332-1.891-4.223-4.223-4.223c-2.332,0-4.223,1.891-4.223,4.223
			C1325.531,1813.271,1327.421,1815.161,1329.753,1815.161z"/>
		<path d="M1402.271,1814.356c1.888,0,3.419-1.53,3.419-3.418c0-1.888-1.531-3.418-3.419-3.418c-1.888,0-3.419,1.531-3.419,3.418
			C1398.852,1812.827,1400.383,1814.356,1402.271,1814.356z"/>
		<path d="M1474.789,1813.351c1.333,0,2.413-1.08,2.413-2.413c0-1.333-1.081-2.413-2.413-2.413c-1.333,0-2.413,1.08-2.413,2.413
			C1472.376,1812.271,1473.456,1813.351,1474.789,1813.351z"/>
		<circle cx="1547.307" cy="1810.938" r="1.206"/>
		<path d="M1619.825,1811.139c0.11,0,0.201-0.09,0.201-0.201c0-0.11-0.091-0.201-0.201-0.201c-0.111,0-0.201,0.091-0.201,0.201
			C1619.624,1811.049,1619.714,1811.139,1619.825,1811.139z"/>
		<path d="M568.317,1883.657c0.111,0,0.201-0.091,0.201-0.201c0-0.111-0.09-0.201-0.201-0.201s-0.201,0.09-0.201,0.201
			C568.116,1883.567,568.206,1883.657,568.317,1883.657z"/>
		<path d="M640.835,1884.462c0.555,0,1.005-0.45,1.005-1.005s-0.45-1.005-1.005-1.005c-0.555,0-1.005,0.45-1.005,1.005
			S640.279,1884.462,640.835,1884.462z"/>
		<path d="M713.353,1885.266c0.999,0,1.81-0.81,1.81-1.81s-0.81-1.81-1.81-1.81c-1,0-1.811,0.81-1.811,1.81
			S712.353,1885.266,713.353,1885.266z"/>
		<circle cx="785.87" cy="1883.456" r="2.614"/>
		<path d="M858.388,1886.674c1.777,0,3.217-1.441,3.217-3.217c0-1.777-1.44-3.217-3.217-3.217c-1.777,0-3.218,1.44-3.218,3.217
			C855.17,1885.233,856.611,1886.674,858.388,1886.674z"/>
		<path d="M930.906,1887.076c1.999,0,3.62-1.62,3.62-3.62c0-1.999-1.62-3.62-3.62-3.62c-1.999,0-3.62,1.62-3.62,3.62
			C927.286,1885.455,928.907,1887.076,930.906,1887.076z"/>
		<ellipse transform="matrix(0.9994 -0.0337 0.0337 0.9994 -62.8468 34.8531)" cx="1003.424" cy="1883.456" rx="3.821" ry="3.821"/>
		<path d="M1075.941,1887.277c2.11,0,3.82-1.711,3.82-3.821c0-2.11-1.71-3.821-3.82-3.821c-2.11,0-3.821,1.71-3.821,3.821
			C1072.12,1885.566,1073.832,1887.277,1075.941,1887.277z"/>
		<path d="M1148.459,1887.076c1.999,0,3.62-1.62,3.62-3.62c0-1.999-1.621-3.62-3.62-3.62s-3.62,1.62-3.62,3.62
			C1144.84,1885.455,1146.46,1887.076,1148.459,1887.076z"/>
		<path d="M1220.977,1886.674c1.777,0,3.217-1.441,3.217-3.217c0-1.777-1.441-3.217-3.217-3.217s-3.217,1.44-3.217,3.217
			C1217.759,1885.233,1219.2,1886.674,1220.977,1886.674z"/>
		<path d="M1293.494,1886.07c1.444,0,2.615-1.17,2.615-2.614s-1.171-2.614-2.615-2.614c-1.444,0-2.614,1.17-2.614,2.614
			S1292.051,1886.07,1293.494,1886.07z"/>
		<path d="M1366.012,1885.467c1.111,0,2.011-0.901,2.011-2.011c0-1.111-0.9-2.011-2.011-2.011s-2.011,0.9-2.011,2.011
			C1364.002,1884.566,1364.902,1885.467,1366.012,1885.467z"/>
		<circle cx="1438.53" cy="1883.456" r="1.206"/>
		<path d="M1511.048,1883.858c0.222,0,0.403-0.181,0.403-0.402c0-0.222-0.181-0.402-0.403-0.402c-0.222,0-0.402,0.18-0.402,0.402
			C1510.645,1883.678,1510.826,1883.858,1511.048,1883.858z"/>
		<path d="M749.611,1956.376c0.222,0,0.402-0.18,0.402-0.402c0-0.222-0.18-0.402-0.402-0.402c-0.222,0-0.402,0.18-0.402,0.402
			C749.209,1956.196,749.39,1956.376,749.611,1956.376z"/>
		<circle cx="822.129" cy="1955.974" r="1.005"/>
		<path d="M894.647,1957.381c0.777,0,1.408-0.63,1.408-1.408c0-0.777-0.63-1.408-1.408-1.408c-0.778,0-1.408,0.63-1.408,1.408
			C893.239,1956.751,893.869,1957.381,894.647,1957.381z"/>
		<path d="M967.165,1957.582c0.889,0,1.609-0.72,1.609-1.609s-0.72-1.609-1.609-1.609c-0.888,0-1.609,0.72-1.609,1.609
			S966.276,1957.582,967.165,1957.582z"/>
		<path d="M1039.683,1957.582c0.888,0,1.609-0.72,1.609-1.609s-0.72-1.609-1.609-1.609c-0.889,0-1.609,0.72-1.609,1.609
			S1038.794,1957.582,1039.683,1957.582z"/>
		<path d="M1112.2,1957.582c0.888,0,1.609-0.72,1.609-1.609s-0.72-1.609-1.609-1.609c-0.888,0-1.609,0.72-1.609,1.609
			S1111.312,1957.582,1112.2,1957.582z"/>
		<path d="M1184.718,1957.381c0.778,0,1.407-0.63,1.407-1.408c0-0.777-0.63-1.408-1.407-1.408c-0.777,0-1.408,0.63-1.408,1.408
			C1183.31,1956.751,1183.941,1957.381,1184.718,1957.381z"/>
		<path d="M1257.236,1956.979c0.555,0,1.005-0.45,1.005-1.005c0-0.555-0.45-1.005-1.005-1.005c-0.555,0-1.005,0.45-1.005,1.005
			C1256.23,1956.529,1256.681,1956.979,1257.236,1956.979z"/>
		<path d="M1329.753,1956.376c0.223,0,0.402-0.18,0.402-0.402c0-0.222-0.18-0.402-0.402-0.402c-0.222,0-0.402,0.18-0.402,0.402
			C1329.351,1956.196,1329.532,1956.376,1329.753,1956.376z"/>
		<path d="M1003.424,2028.692c0.111,0,0.201-0.09,0.201-0.201c0-0.11-0.09-0.201-0.201-0.201c-0.111,0-0.201,0.091-0.201,0.201
			C1003.222,2028.602,1003.312,2028.692,1003.424,2028.692z"/>
		<path d="M1075.941,2028.692c0.111,0,0.201-0.09,0.201-0.201c0-0.11-0.09-0.201-0.201-0.201c-0.11,0-0.201,0.091-0.201,0.201
			C1075.74,2028.602,1075.831,2028.692,1075.941,2028.692z"/>
	</g>
	<g style="opacity:0.2;">
		<g>
			<path d="M1121.381,1807.694l-46.574-125.956c-40.94-110.709-71.11-138.468-89.223-142.258
				c-30.494-6.32-83.545,48.575-139.623,106.778l-119.794,123.978l52.143-145.34c24.817-69.152,20.102-130.99-12.296-161.387
				c-41.751-39.177-130.811-32.198-250.766,19.67l-282.786,122.285l250.226-179.753c73.079-52.5,109.358-103.329,102.167-143.133
				c-8.046-44.487-70.904-85.833-172.488-113.434l-150.265-40.833l153.856-24.045c72.505-11.333,152.038-27.634,177.979-77.9
				c21.92-42.455,9.138-111.845-37.978-206.242L477.24,662.37l130.736,118.285c118.851,107.524,158.904,95.467,165.717,91.984
				c6.749-3.46,39.458-28.628,21.767-184.997l-19.702-173.964l82.053,154.662c71.673,135.098,110.267,147.431,123.048,146.361
				c13.258-0.984,49.742-19.356,102.21-168.21l54.413-154.407l10.068,163.403c8.608,139.592,35.284,156.013,40.54,157.884
				c10.166,3.617,45.708-0.849,155.477-119.641l160.365-173.557l-106.298,211.047c-41.944,83.26-42.983,127.287-29.975,140.722
				c13.712,14.183,71.737,22.016,202.289-38.469l211.296-97.88l-175.504,153.056c-131.622,114.796-117.943,151.806-117.791,152.163
				c0.13,0.303,14.49,30.068,155.65,17.528l248.529-22.075l-234.092,86.33c-135.147,49.844-142.911,83.707-143.096,89.984
				c-0.259,8.916,9.418,42.606,144.891,101.762l278.947,121.809l-298.649-58.771c-96.392-18.972-259.277-17.583-277.951,19.951
				c-1.536,3.092-12.328,32.657,81.869,116.921l144.653,129.395l-179.451-73.921c-109.011-44.898-179.203-56.765-214.639-36.252
				c-28.191,16.313-44.844,58.501-55.712,141.079L1121.381,1807.694z M980.264,1472.474c6.262,0,12.566,0.643,18.935,1.979
				c35.923,7.52,66.439,35.225,95.949,89.017c13.279-37.209,33.479-68.569,66.19-87.504c37.544-21.712,85.989-24.86,153.465-8.423
				c-18.761-32.041-28.277-67.33-12.089-99.826c27.098-54.43,114.461-68.357,195.141-68.66
				c-34.776-28.661-50.239-57.263-49.321-88.412c0.94-32.446,19.962-61.442,59.615-89.06c-42.919-8.786-69.444-26.877-81.317-54.721
				c-14.512-34.063-3.472-74.928,34.656-125.14c-56.846,11.883-109.616,9.445-141.57-23.573
				c-20.049-20.709-28.602-48.72-25.629-84.535c-47.958,38.328-90.26,55.944-128.498,42.345
				c-31.964-11.386-53.829-41.032-67.736-94.396c-34.647,65.481-70.298,96.267-112.255,99.393
				c-39.568,3.027-78.42-20.503-119.987-74.349c-5.213,65.936-25.552,106.557-61.789,125.146
				c-37.414,19.177-84.141,10.943-143.56-26.175c15.863,60.995,13.311,110.98-7.483,151.26
				c-23.412,45.362-66.385,71.536-115.694,88.223c65.411,33.317,103.94,75.884,112.948,125.701
				c6.424,35.528-2.206,71.586-25.704,107.887c98.847-18.442,155.239,6.651,186.944,36.41
				c31.479,29.531,48.088,72.31,49.094,122.365C902.115,1498.649,940.265,1472.474,980.264,1472.474z"/>
		</g>
		<path d="M601.635,789.346c134.486,269.48-18.567,308.976-164.6,331.795c216.233,58.76,273.05,177.623,80.978,315.603
			c299.425-129.478,361.867,31.948,307.519,183.428c131.904-136.493,202.072-220.952,296.373,34.098
			c22.848-173.635,75.484-230.255,315.941-131.204c-279.475-249.998,143.502-210.187,224.644-194.224
			c-197.666-86.315-240.824-164.545,0-253.358c-267.659,23.777-224.644-86.523-62.636-227.815
			c-194.368,90.042-327.971,75.069-215.946-147.34c-160.645,173.856-237.986,194.171-253.561-58.744
			c-84.401,239.474-162.797,258.505-285.94,26.377C873.127,921.67,787.599,957.589,601.635,789.346z"/>
	</g>
	<g>
		<g>
			<path style="fill:#231F20;" d="M1121.381,1766.228l-46.574-125.956c-40.94-110.709-71.11-138.469-89.223-142.258
				c-30.494-6.32-83.545,48.574-139.623,106.778L726.168,1728.77l52.143-145.34c24.817-69.152,20.102-130.99-12.296-161.387
				c-41.751-39.178-130.811-32.198-250.766,19.67l-282.786,122.285l250.226-179.753c73.079-52.5,109.358-103.329,102.167-143.133
				c-8.046-44.487-70.904-85.834-172.488-113.435l-150.265-40.833l153.856-24.044c72.505-11.333,152.038-27.635,177.979-77.9
				c21.92-42.455,9.138-111.845-37.978-206.242L477.24,620.904L607.977,739.19c118.851,107.524,158.904,95.467,165.717,91.984
				c6.749-3.46,39.458-28.628,21.767-184.998l-19.702-173.963l82.053,154.661c71.673,135.099,110.267,147.431,123.048,146.362
				c13.258-0.985,49.742-19.356,102.21-168.21l54.413-154.407l10.068,163.403c8.608,139.593,35.284,156.013,40.54,157.884
				c10.166,3.617,45.708-0.848,155.477-119.641l160.365-173.556l-106.298,211.047c-41.944,83.26-42.983,127.287-29.975,140.722
				c13.712,14.183,71.737,22.016,202.289-38.469l211.296-97.88l-175.504,153.056C1474.12,961.98,1487.798,998.991,1487.95,999.347
				c0.13,0.302,14.49,30.067,155.65,17.528l248.529-22.076l-234.092,86.33c-135.147,49.845-142.911,83.708-143.096,89.984
				c-0.259,8.917,9.418,42.607,144.891,101.762l278.947,121.808l-298.649-58.771c-96.392-18.972-259.277-17.583-277.951,19.951
				c-1.536,3.092-12.328,32.657,81.869,116.921l144.653,129.395l-179.451-73.921c-109.011-44.898-179.203-56.766-214.639-36.253
				c-28.191,16.313-44.844,58.501-55.712,141.079L1121.381,1766.228z M980.264,1431.008c6.262,0,12.566,0.642,18.935,1.979
				c35.923,7.52,66.439,35.224,95.949,89.016c13.279-37.209,33.479-68.568,66.19-87.503c37.544-21.713,85.989-24.86,153.465-8.424
				c-18.761-32.041-28.277-67.33-12.089-99.826c27.098-54.43,114.461-68.357,195.141-68.661
				c-34.776-28.661-50.239-57.262-49.321-88.411c0.94-32.446,19.962-61.442,59.615-89.06c-42.919-8.786-69.444-26.877-81.317-54.722
				c-14.512-34.063-3.472-74.927,34.656-125.14c-56.846,11.884-109.616,9.445-141.57-23.573
				c-20.049-20.709-28.602-48.72-25.629-84.535c-47.958,38.328-90.26,55.944-128.498,42.345
				c-31.964-11.386-53.829-41.032-67.736-94.397c-34.647,65.481-70.298,96.267-112.255,99.393
				c-39.568,3.027-78.42-20.502-119.987-74.349c-5.213,65.936-25.552,106.557-61.789,125.146
				c-37.414,19.177-84.141,10.943-143.56-26.175c15.863,60.994,13.311,110.98-7.483,151.26
				c-23.412,45.362-66.385,71.536-115.694,88.222c65.411,33.317,103.94,75.884,112.948,125.702
				c6.424,35.529-2.206,71.587-25.704,107.887c98.847-18.442,155.239,6.651,186.944,36.41
				c31.479,29.531,48.088,72.31,49.094,122.365C902.115,1457.182,940.265,1431.008,980.264,1431.008z"/>
		</g>
		<path style="fill:#FFE000;" d="M601.635,747.88c134.486,269.479-18.567,308.976-164.6,331.795
			c216.233,58.76,273.05,177.622,80.978,315.603c299.425-129.479,361.867,31.948,307.519,183.428
			c131.904-136.493,202.072-220.953,296.373,34.098c22.848-173.635,75.484-230.255,315.941-131.204
			c-279.475-249.998,143.502-210.188,224.644-194.224c-197.666-86.315-240.824-164.545,0-253.359
			c-267.659,23.778-224.644-86.523-62.636-227.814c-194.368,90.042-327.971,75.069-215.946-147.34
			c-160.645,173.855-237.986,194.171-253.561-58.744c-84.401,239.475-162.797,258.506-285.94,26.377
			C873.127,880.204,787.599,916.123,601.635,747.88z"/>
	</g>
	<polygon style="fill:#231F20;" points="1733.63,248.919 1428.09,715.959 1803.468,257.649 	"/>
	<polygon style="fill:#231F20;" points="1729.265,515.176 1524.117,715.959 1759.819,558.824 	"/>
	<polygon style="fill:#231F20;" points="162.282,1798.444 659.876,1466.715 175.376,1872.646 	"/>
	<polygon style="fill:#231F20;" points="437.267,1916.295 681.7,1580.201 515.835,1907.565 	"/>
	<polygon style="fill:#231F20;" points="393.619,279.474 707.889,729.054 406.714,183.446 	"/>
	<polygon style="fill:#231F20;" points="1349.523,440.973 1317.615,414.91 1282.747,436.855 1297.675,398.455 1266.028,372.075 
		1307.162,374.406 1322.472,336.157 1332.965,375.997 1374.074,378.738 1339.426,401.03 	"/>
	<polygon style="fill:#231F20;" points="341.241,1405.607 291.279,1405.476 275.244,1452.794 259.929,1405.239 209.972,1404.61 
		250.468,1375.349 235.627,1327.642 275.97,1357.114 316.757,1328.258 301.194,1375.734 	"/>
	<polygon style="fill:#231F20;" points="672.97,1911.93 698.042,1877.021 672.937,1842.138 713.884,1855.196 739.302,1820.539 
		739.537,1863.517 780.352,1876.983 739.55,1890.487 739.356,1933.465 713.905,1898.833 	"/>
	<polygon style="fill:#231F20;" points="1751.09,1702.417 1708.172,1683.319 1676.401,1717.92 1681.301,1671.201 1638.576,1651.677 
		1684.523,1641.901 1689.889,1595.234 1713.384,1635.911 1759.426,1626.593 1728,1661.508 	"/>
</g>
</svg>
